<?xml version="1.0" encoding="utf-8" ?><svg xmlns="http://www.w3.org/2000/svg" xmlns:xlink="http://www.w3.org/1999/xlink" width="1024" height="1024" viewBox="0 0 1024 1024"><path fill="#FE675F" d="M0 0L1024 0L1024 1024L498.06 1024L382.173 1024L0 1024L0 0Z"/><path fill="#FCDFD2" d="M191.976 190.546C203.519 190.46 215.378 190.132 226.893 190.679C255.003 192.012 283.139 193.737 311.252 194.95C388.362 197.823 465.449 201.298 542.505 205.375L684.73 212.581C707.414 213.384 730.085 214.519 752.736 215.984C761.872 216.587 771.426 217.145 780.483 218.046C785.158 218.665 792.126 222.522 795.338 226.027C803.839 235.306 802.035 250.299 802.709 261.769C803.376 273.128 803.256 284.589 803.881 295.805L808.749 393.001C809.01 399.015 810.169 446.661 810.797 448.288C801.168 445.469 790.795 443.37 780.955 441.269C779.047 440.862 779.927 442.852 777.451 442.789C773.774 439.585 773.585 439.563 768.469 439.239C767.994 440.121 768.209 439.826 768.247 441.084L767.32 440.839L766.771 439.343C765.263 438.74 761.146 438.503 759.407 438.537C754.046 438.641 754.399 437.154 750.783 440.618C742.41 434.842 744.854 440.62 742.712 439.936C734.815 437.417 729.356 439.87 721.431 440.101C721.723 440.092 720.439 441.456 719.179 441.782L719.919 440.625L719.526 440.118C716.084 439.853 715.703 441.942 712.478 442.509L711.527 441.411C709.774 441.544 703.588 443.606 701.437 444.237L699.979 444.93C697.699 443.749 693.719 445.545 691.366 446.37C690.762 446.216 690.159 446.061 689.555 445.907C682.118 448.331 672.345 452.936 665.122 455.293C665.034 455.45 664.301 456.771 664.257 456.787C658.679 458.887 652.646 460.812 647.528 463.906C647.424 463.969 647.294 465.647 647.285 465.748C646.032 466.346 644.632 465.895 643.173 465.664C640.377 469.276 635.89 469.23 635.025 470.728L635.15 471.743L634.498 472.253L633.401 471.532C632.051 471.952 632.515 471.961 631.807 472.912C629.691 475.758 625.684 476.936 623.053 479.278C617.498 484.221 604.506 492.103 600.787 497.589C596.89 503.337 591.737 505.617 589.105 509.527C590.013 510.652 589.704 510.188 591.427 510.817L591.302 511.532C589.812 511.534 590.253 511.549 588.774 511.129C584.592 513.297 556.985 552.212 555.903 556.131C555.897 556.193 555.668 558.575 555.737 558.417C553.977 562.427 545.156 579.172 543.067 581.803C542.102 584.004 542.818 584.242 542.244 585.869C541.083 589.162 539.456 592.459 538.181 595.722C538.405 596.303 538.629 596.884 538.853 597.464L538.268 598.155C536.481 600.286 535.534 601.346 534.979 604.134C533.812 609.994 529.195 623.309 528.681 628.488C530.22 629.141 529.819 628.63 530.532 629.752C529.765 630.568 529.631 630.697 528.73 631.357C527.771 636.35 524.756 645.748 527.186 650.116C525.718 653.121 525.435 653.199 525.211 656.514C508.047 654.93 487.719 654.78 470.278 654.141L380.696 650.978C376.725 650.856 372.388 650.812 368.47 650.411C359.77 650.878 350.815 649.913 342.133 649.649L285.995 647.726L232.467 645.97C225.532 645.729 218.524 645.579 211.594 645.271C209.466 645.177 207.526 644.184 205.979 642.775C204.738 641.644 204.089 637.452 203.985 635.73C203.416 626.227 202.821 616.311 202.474 606.798C201.797 588.217 200.597 569.62 199.973 551.071C199.996 546.909 199.865 544.357 199.446 540.208C198.433 534.305 198.197 521.628 197.913 515.15L195.976 468.075C194.358 425.066 191.774 381.027 191.545 338.094C191.508 335.778 191.494 333.582 191.317 331.268C190.557 324.101 190.449 314.152 190.237 306.793L189.18 268.059C188.448 242.258 186.733 220.313 187.069 194.182C189.065 192.347 189.642 191.936 191.976 190.546Z"/><path fill="#FCDFD2" d="M371.607 417.51C378.131 423.377 386.985 430.177 394.674 434.38L394.559 435.967C395.307 436.763 395.947 437.111 396.902 437.594C398.826 438.567 400.926 439.59 402.626 440.939C405.792 443.449 423.071 460.32 426.033 458.787C426.332 458.633 426.563 458.372 426.827 458.165L427.427 458.809L427.133 460.789C428.764 462.892 447.952 478.014 450.637 479.516C458.754 479.049 484.861 441.457 492.941 434.43C496.347 431.468 500.336 423.014 504.847 420.616C510.992 416.908 505.652 414.457 511.476 412.591C514.315 413.332 517.555 417.6 520.507 419.242C524.169 421.28 532.212 424.312 536.347 424.416C537.334 424.077 546.939 422.948 549.979 422.103C549.092 426.007 549.375 437.759 549.434 442.143C549.803 459.175 550.344 476.202 551.057 493.222C551.721 511.905 551.692 531.658 552.746 550.186C554.508 552.718 555.178 553.047 555.903 556.131C555.897 556.193 555.668 558.575 555.737 558.417C553.977 562.427 545.156 579.172 543.067 581.803C542.102 584.004 542.818 584.242 542.244 585.869C541.083 589.162 539.456 592.459 538.181 595.722C538.405 596.303 538.629 596.884 538.853 597.464L538.268 598.155C536.481 600.286 535.534 601.346 534.979 604.134C533.812 609.994 529.195 623.309 528.681 628.488C530.22 629.141 529.819 628.63 530.532 629.752C529.765 630.568 529.631 630.697 528.73 631.357C527.771 636.35 524.756 645.748 527.186 650.116C525.718 653.121 525.435 653.199 525.211 656.514C508.047 654.93 487.719 654.78 470.278 654.141L380.696 650.978C376.725 650.856 372.388 650.812 368.47 650.411C359.77 650.878 350.815 649.913 342.133 649.649L285.995 647.726L232.467 645.97C225.532 645.729 218.524 645.579 211.594 645.271C209.466 645.177 207.526 644.184 205.979 642.775C204.738 641.644 204.089 637.452 203.985 635.73C203.416 626.227 202.821 616.311 202.474 606.798C201.797 588.217 200.597 569.62 199.973 551.071C199.996 546.909 199.865 544.357 199.446 540.208C203.491 538.838 250.005 540.83 259.136 540.201C262.395 541.51 270.776 544.118 273.98 542.694C276.752 543.272 277.582 543.229 279.987 541.792L282.085 540.662C291.225 538.577 299.181 525.793 301.821 517.336L300.269 517.328L301.115 515.666C306.22 505.649 295.434 504.07 294.699 497.858C294.573 496.795 349.815 433.639 355.318 426.819C357.015 424.672 365.321 414.528 367.011 413.217C368.383 413.803 367.755 413.359 368.56 415.184C369.611 415.83 369.687 415.747 370.911 416.017L371.607 417.51Z"/><path fill="#FCDFD2" d="M199.973 551.071C211.029 551.854 221.334 551.563 232.239 551.924L317.151 554.089C324.858 554.282 332.565 554.43 340.273 554.532C347.241 554.585 356.449 554.445 363.329 555.537L366.766 616.077C367.4 626.447 368.638 640.097 368.47 650.411C359.77 650.878 350.815 649.913 342.133 649.649L285.995 647.726L232.467 645.97C225.532 645.729 218.524 645.579 211.594 645.271C209.466 645.177 207.526 644.184 205.979 642.775C204.738 641.644 204.089 637.452 203.985 635.73C203.416 626.227 202.821 616.311 202.474 606.798C201.797 588.217 200.597 569.62 199.973 551.071Z"/><path fill="#FCDFD2" d="M380.696 650.978C381.016 641.465 379.182 627.834 378.853 618.052C378.401 604.606 377.477 591.27 376.64 577.862C376.44 574.662 375.229 559.377 376.008 557.02C377.988 555.699 381.802 556.224 384.358 556.254C412.524 556.921 440.854 558.047 469.005 559.369C492.37 560.466 518.23 559.351 541.242 561.95C542.705 565.949 540.912 578.004 543.067 581.803C542.102 584.004 542.818 584.242 542.244 585.869C541.083 589.162 539.456 592.459 538.181 595.722C538.405 596.303 538.629 596.884 538.853 597.464L538.268 598.155C536.481 600.286 535.534 601.346 534.979 604.134C533.812 609.994 529.195 623.309 528.681 628.488C530.22 629.141 529.819 628.63 530.532 629.752C529.765 630.568 529.631 630.697 528.73 631.357C527.771 636.35 524.756 645.748 527.186 650.116C525.718 653.121 525.435 653.199 525.211 656.514C508.047 654.93 487.719 654.78 470.278 654.141L380.696 650.978Z"/><defs><linearGradient id="gradient_0" gradientUnits="userSpaceOnUse" x1="555.79639" y1="548.61682" x2="204.95583" y2="504.81229"><stop offset="0" stop-color="#A595C3"/><stop offset="1" stop-color="#BEA8C4"/></linearGradient></defs><path fill="url(#gradient_0)" d="M355.318 426.819C357.015 424.672 365.321 414.528 367.011 413.217C368.383 413.803 367.755 413.359 368.56 415.184C369.611 415.83 369.687 415.747 370.911 416.017L371.607 417.51C370.906 417.878 369.407 418.445 369.427 419.484C370.165 457.57 371.691 495.754 373.96 533.794C374.178 537.446 374.413 540.667 374.382 544.355C420.375 545.71 466.344 547.785 512.272 550.579C520.242 551.013 532.257 550.32 540.287 551.878L540.934 551.477C542.133 545.895 541.14 526.03 540.896 519.853L539.824 485.966C539.297 467.407 539.426 448.671 538.119 430.038C537.925 427.274 537.725 426.655 536.347 424.416C537.334 424.077 546.939 422.948 549.979 422.103C549.092 426.007 549.375 437.759 549.434 442.143C549.803 459.175 550.344 476.202 551.057 493.222C551.721 511.905 551.692 531.658 552.746 550.186C554.508 552.718 555.178 553.047 555.903 556.131C555.897 556.193 555.668 558.575 555.737 558.417C553.977 562.427 545.156 579.172 543.067 581.803C540.912 578.004 542.705 565.949 541.242 561.95C518.23 559.351 492.37 560.466 469.005 559.369C440.854 558.047 412.524 556.921 384.358 556.254C381.802 556.224 377.988 555.699 376.008 557.02C375.229 559.377 376.44 574.662 376.64 577.862C377.477 591.27 378.401 604.606 378.853 618.052C379.182 627.834 381.016 641.465 380.696 650.978C376.725 650.856 372.388 650.812 368.47 650.411C368.638 640.097 367.4 626.447 366.766 616.077L363.329 555.537C356.449 554.445 347.241 554.585 340.273 554.532C332.565 554.43 324.858 554.282 317.151 554.089L232.239 551.924C221.334 551.563 211.029 551.854 199.973 551.071C199.996 546.909 199.865 544.357 199.446 540.208C203.491 538.838 250.005 540.83 259.136 540.201C262.395 541.51 270.776 544.118 273.98 542.694C276.752 543.272 277.582 543.229 279.987 541.792L282.085 540.662C291.225 538.577 299.181 525.793 301.821 517.336L300.269 517.328L301.115 515.666C306.22 505.649 295.434 504.07 294.699 497.858C294.573 496.795 349.815 433.639 355.318 426.819Z"/><path fill="#FCDFD2" d="M355.318 426.819C357.744 432.226 357.609 447.36 357.98 454.223C359.087 471.605 359.917 489.003 360.47 506.41C360.858 515.755 362.63 535.829 362.214 544.049C360.687 544.638 362.248 544.561 360.947 544.198C356.98 543.092 355.532 543.498 351 543.363C345.866 543.292 340.717 543.135 335.592 543.572C335.07 543.24 334.548 542.908 334.026 542.575C319.755 543.337 305.538 542.336 291.293 541.577C287.437 541.371 284.01 542.398 279.987 541.792L282.085 540.662C291.225 538.577 299.181 525.793 301.821 517.336L300.269 517.328L301.115 515.666C306.22 505.649 295.434 504.07 294.699 497.858C294.573 496.795 349.815 433.639 355.318 426.819Z"/><path fill="#040406" d="M564.172 340.681C570 335.187 577.906 325.36 583.253 319.072L618.149 278.668C626.868 268.496 634.308 258.515 644.41 249.431C647.437 248.827 651.113 252.978 652.662 255.287C662.769 270.349 672.379 285.676 682.877 300.491C684.249 302.428 684.623 303.678 684.522 305.961C685.065 306.157 685.608 306.353 686.151 306.549C690.649 311.995 693.912 318.816 698.161 324.5C700.111 327.638 704.185 334.792 706.577 337.21C719.818 329.596 733.855 328.227 743.824 342.161C745.593 344.634 746.239 346.002 747.1 348.938C747.815 350.957 749.263 354.272 749.032 356.231L747.636 357.407C749.108 358.821 748.723 357.577 750.736 358.403L750.585 359.044C749.887 362.122 749.86 365.692 749.639 368.928C748.88 380.083 743.468 386.702 734.436 392.548C731.241 394.615 727.468 395.879 723.698 396.361C722.153 396.558 719.656 396.196 718.526 396.941C717.579 397.566 715.758 397.418 714.963 396.893C712.318 395.143 714.885 394.174 710.525 395.087C706.832 393.369 704.812 391.149 701.57 389.04C699.304 392.758 701.714 436.347 701.437 444.237L699.979 444.93C697.699 443.749 693.719 445.545 691.366 446.37C690.762 446.216 690.159 446.061 689.555 445.907C682.118 448.331 672.345 452.936 665.122 455.293C665.034 455.45 664.301 456.771 664.257 456.787C658.679 458.887 652.646 460.812 647.528 463.906C647.424 463.969 647.294 465.647 647.285 465.748C646.032 466.346 644.632 465.895 643.173 465.664C640.377 469.276 635.89 469.23 635.025 470.728L635.15 471.743L634.498 472.253L633.401 471.532C632.051 471.952 632.515 471.961 631.807 472.912C629.691 475.758 625.684 476.936 623.053 479.278C617.498 484.221 604.506 492.103 600.787 497.589C596.89 503.337 591.737 505.617 589.105 509.527C590.013 510.652 589.704 510.188 591.427 510.817L591.302 511.532C589.812 511.534 590.253 511.549 588.774 511.129C584.592 513.297 556.985 552.212 555.903 556.131C555.178 553.047 554.508 552.718 552.746 550.186C551.692 531.658 551.721 511.905 551.057 493.222C550.344 476.202 549.803 459.175 549.434 442.143C549.375 437.759 549.092 426.007 549.979 422.103C546.939 422.948 537.334 424.077 536.347 424.416C532.212 424.312 524.169 421.28 520.507 419.242C517.555 417.6 514.315 413.332 511.476 412.591C505.652 414.457 510.992 416.908 504.847 420.616C500.336 423.014 496.347 431.468 492.941 434.43C484.861 441.457 458.754 479.049 450.637 479.516C447.952 478.014 428.764 462.892 427.133 460.789L427.427 458.809L426.827 458.165C426.563 458.372 426.332 458.633 426.033 458.787C423.071 460.32 405.792 443.449 402.626 440.939C400.926 439.59 398.826 438.567 396.902 437.594C395.947 437.111 395.307 436.763 394.559 435.967L394.674 434.38C386.985 430.177 378.131 423.377 371.607 417.51L370.911 416.017C369.687 415.747 369.611 415.83 368.56 415.184C367.755 413.359 368.383 413.803 367.011 413.217C365.321 414.528 357.015 424.672 355.318 426.819C349.815 433.639 294.573 496.795 294.699 497.858C295.434 504.07 306.22 505.649 301.115 515.666L300.269 517.328L301.821 517.336C299.181 525.793 291.225 538.577 282.085 540.662L279.987 541.792C277.582 543.229 276.752 543.272 273.98 542.694C270.776 544.118 262.395 541.51 259.136 540.201C251.233 534.951 246.783 522.443 250.906 513.506C250.371 512.734 250.604 513.123 250.196 512.345C250.924 511.125 251.679 509.921 252.46 508.735C257.413 501.33 263.578 497.369 272.262 495.255C274.548 494.698 278.005 494.756 280.863 494.209C287.59 488.426 296.953 476.664 302.895 469.619L334.903 431.945C342.041 423.627 351.211 415.503 357.289 406.52C360.018 403.269 362.705 398.567 367.401 399.765C370.966 392.964 365.703 358.827 366.625 348.056C366.739 346.723 366.867 346.029 367.91 345.193C370.993 344.767 375.273 345.409 378.597 345.546C386.512 345.857 394.429 346.12 402.347 346.335C429.635 347.028 456.91 348.243 484.19 349.295C490.402 349.534 513.08 348.749 516.995 350.801C517.88 349.741 517.576 349.965 518.681 349.197L519.139 349.383C523.558 346.602 528.544 344.942 532.498 342.537C532.212 342.348 532.048 342.02 531.84 341.748L532.522 339.374C533.776 339.1 535.918 339.377 537.293 339.485L537.672 340.507C537.101 341.534 537.403 341.23 536.418 341.864L538.188 342.564L538.817 342.185C542.152 342.469 547.834 343.579 550.617 343.64C548.358 342.307 547.711 342.444 547.818 339.83C553.793 340.017 558.393 340.344 564.172 340.681Z"/><path fill="#FCDFD2" d="M569.192 353.024C581.332 353.828 594.44 353.933 606.66 354.265L656.759 355.65C662.663 355.772 683.526 357.725 687.589 356.315L688.043 356.433C688.213 358.875 688.122 358.952 686.806 361.122L687.066 361.798C687.646 363.335 688.219 364.207 687.813 365.724L686.552 366.723C686.779 367.5 690.264 376.312 690.552 376.662L689.439 377.801C691.034 379.259 691.483 379.283 693.602 379.769C694.466 380.734 701.472 388.984 701.57 389.04C699.304 392.758 701.714 436.347 701.437 444.237L699.979 444.93C697.699 443.749 693.719 445.545 691.366 446.37C690.762 446.216 690.159 446.061 689.555 445.907C682.118 448.331 672.345 452.936 665.122 455.293C665.034 455.45 664.301 456.771 664.257 456.787C658.679 458.887 652.646 460.812 647.528 463.906C647.424 463.969 647.294 465.647 647.285 465.748C646.032 466.346 644.632 465.895 643.173 465.664C640.377 469.276 635.89 469.23 635.025 470.728L635.15 471.743L634.498 472.253L633.401 471.532C632.051 471.952 632.515 471.961 631.807 472.912C629.691 475.758 625.684 476.936 623.053 479.278C617.498 484.221 604.506 492.103 600.787 497.589C596.89 503.337 591.737 505.617 589.105 509.527C590.013 510.652 589.704 510.188 591.427 510.817L591.302 511.532C589.812 511.534 590.253 511.549 588.774 511.129C584.592 513.297 556.985 552.212 555.903 556.131C555.178 553.047 554.508 552.718 552.746 550.186C551.692 531.658 551.721 511.905 551.057 493.222C550.344 476.202 549.803 459.175 549.434 442.143C549.375 437.759 549.092 426.007 549.979 422.103C550.769 421.676 550.504 421.741 551.239 421.577C556.033 420.51 561.969 417.438 564.92 413.438L564.525 412.475L564.989 411.883L566.3 412.376C570.003 410.785 569.906 403.489 570.329 403.068C575.514 397.905 574.917 389.296 576.399 382.335C576.247 383.048 575.053 380.413 575.02 380.291C576.078 379.525 575.79 379.916 576.345 378.8L575.887 378.251L573.784 378.426L573.5 378.065C578.713 372.828 568.754 362.784 567.607 356.43C567.318 354.827 568.264 354.241 569.192 353.024Z"/><path fill="#B09DC2" d="M689.439 377.801C691.034 379.259 691.483 379.283 693.602 379.769C694.466 380.734 701.472 388.984 701.57 389.04C699.304 392.758 701.714 436.347 701.437 444.237L699.979 444.93C697.699 443.749 693.719 445.545 691.366 446.37C690.139 442.74 690.38 411.99 690.295 406.156C690.166 396.7 689.881 387.247 689.439 377.801Z"/><path fill="#FCDFD2" d="M367.401 399.765C370.966 392.964 365.703 358.827 366.625 348.056C366.739 346.723 366.867 346.029 367.91 345.193C370.993 344.767 375.273 345.409 378.597 345.546C386.512 345.857 394.429 346.12 402.347 346.335C429.635 347.028 456.91 348.243 484.19 349.295C490.402 349.534 513.08 348.749 516.995 350.801C516.14 351.784 516.275 351.664 515.262 352.269C511.025 354.799 507.535 358.988 504.3 362.686C504.496 363.973 504.384 363.362 504.625 364.519C503.444 365.291 503.946 365.097 502.479 365.173L502.11 365.947C502.91 366.989 502.584 366.684 503.645 367.383C502.42 369.454 500.539 369.438 500.162 370.72C498.571 376.137 501.242 375.767 497.832 380.876C498.288 382.155 498.496 382.088 499.668 382.883C498.067 384.901 498.131 384.245 497.79 386.486C498.455 387.186 498.055 386.913 499.012 387.273C498.96 388.662 498.806 390.571 499.181 391.908C499.547 393.211 501.947 395.391 501.462 396.362L500.448 396.594C502 400.808 502.553 396.076 503.781 403.095C496.59 411.607 489.041 420.88 481.339 428.986C474.617 436.061 458.015 459.439 450.822 463.577C447.537 462.981 417.485 437.839 412.168 434.481C410.716 433.564 409.102 430.545 407.02 429.381C404.491 427.967 401.652 426.877 399.001 425.773L398.749 425.386L399.979 425.12C399.047 422.189 377.343 407.927 373.34 404.3C371.576 402.702 368.916 401.832 367.401 399.765Z"/><path fill="#FCDFD2" d="M579.103 341.68C597.125 321.8 613.997 301.619 631.415 281.22C635.199 276.788 642.139 270.035 644.78 265.129C646.377 266.539 651.705 275.958 653.602 278.69C663.432 292.846 673.117 307.374 682.091 322.093C684.709 326.387 688.822 332.173 690.837 336.466C692.025 337.439 693.609 339.649 694.605 340.929L695.634 340.805C696.175 345.806 688.722 350.312 690.672 355.308C689.714 355.638 688.785 355.831 688.043 356.433L687.589 356.315C683.526 357.725 662.663 355.772 656.759 355.65L606.66 354.265C594.44 353.933 581.332 353.828 569.192 353.024C572.664 349.596 575.958 345.45 579.103 341.68Z"/><path fill="#B09DC2" d="M690.837 336.466C692.025 337.439 693.609 339.649 694.605 340.929L695.634 340.805C696.175 345.806 688.722 350.312 690.672 355.308C689.714 355.638 688.785 355.831 688.043 356.433L687.589 356.315C683.526 357.725 662.663 355.772 656.759 355.65L606.66 354.265C594.44 353.933 581.332 353.828 569.192 353.024C572.664 349.596 575.958 345.45 579.103 341.68C592.767 343.155 600.352 343.071 613.713 343.644L687.951 346.323C688.468 343.358 688.053 340.325 688.86 337.611C689.085 336.851 689.751 336.883 690.837 336.466Z"/><path fill="#C2A8C8" d="M547.818 339.83C553.793 340.017 558.393 340.344 564.172 340.681C562.705 342.675 560.525 345.981 558.147 346.602C555.097 346.245 555.433 344.546 550.617 343.64C548.358 342.307 547.711 342.444 547.818 339.83Z"/><path fill="#100D0E" d="M273.98 542.694C276.669 538.797 278.07 538.164 282.085 540.662L279.987 541.792C277.582 543.229 276.752 543.272 273.98 542.694Z"/><path fill="#C2A8C8" d="M532.522 339.374C533.776 339.1 535.918 339.377 537.293 339.485L537.672 340.507C537.101 341.534 537.403 341.23 536.418 341.864L534.797 342.204L534.44 343.714L532.498 342.537C532.212 342.348 532.048 342.02 531.84 341.748L532.522 339.374Z"/><path fill="#FCDFD2" d="M191.545 338.094C195.952 340.166 227.068 340.26 233.793 340.46L291.313 342.524C308.03 343.136 324.986 344.085 341.631 344.176C345.453 344.197 349.603 344.589 353.312 344.291L354.278 344.942C354.739 350.057 354.553 355.326 354.789 360.489L356.424 391.395C356.604 394.842 356.795 403.468 357.289 406.52C351.211 415.503 342.041 423.627 334.903 431.945L302.895 469.619C296.953 476.664 287.59 488.426 280.863 494.209C278.005 494.756 274.548 494.698 272.262 495.255C263.578 497.369 257.413 501.33 252.46 508.735C251.679 509.921 250.924 511.125 250.196 512.345C250.604 513.123 250.371 512.734 250.906 513.506C246.783 522.443 251.233 534.951 259.136 540.201C250.005 540.83 203.491 538.838 199.446 540.208C198.433 534.305 198.197 521.628 197.913 515.15L195.976 468.075C194.358 425.066 191.774 381.027 191.545 338.094Z"/><path fill="#B09DC2" d="M191.317 331.268C191.363 329.174 191.034 328.843 191.934 327.279C195.473 326.979 202.199 327.592 206.006 327.823C212.642 328.268 219.287 328.55 225.936 328.669C229.845 328.77 233.591 328.421 237.424 328.683C241.051 328.93 244.689 329.379 248.33 329.486L332.876 332.568C338.297 332.769 346.251 333.442 351.817 334.038C352.453 333.549 353.002 333.128 353.462 332.775C354.046 327.768 352.604 321.344 352.766 317.24C353.179 306.781 350.681 288.318 350.867 279.039C351.012 271.815 347.461 217.247 348.45 215.009C366.42 208.031 359.698 226.773 361.443 235.91C363.557 246.98 363.799 329.237 366.481 333.713C370.468 334.707 376.696 333.957 380.999 334.065C409.984 334.798 439.552 336.752 468.492 337.33L505.679 338.002C511.881 338.098 527.157 338.181 532.522 339.374L531.84 341.748C532.048 342.02 532.212 342.348 532.498 342.537C528.544 344.942 523.558 346.602 519.139 349.383L518.681 349.197C517.576 349.965 517.88 349.741 516.995 350.801C513.08 348.749 490.402 349.534 484.19 349.295C456.91 348.243 429.635 347.028 402.347 346.335C394.429 346.12 386.512 345.857 378.597 345.546C375.273 345.409 370.993 344.767 367.91 345.193C366.867 346.029 366.739 346.723 366.625 348.056C365.703 358.827 370.966 392.964 367.401 399.765C362.705 398.567 360.018 403.269 357.289 406.52C356.795 403.468 356.604 394.842 356.424 391.395L354.789 360.489C354.553 355.326 354.739 350.057 354.278 344.942L353.312 344.291C349.603 344.589 345.453 344.197 341.631 344.176C324.986 344.085 308.03 343.136 291.313 342.524L233.793 340.46C227.068 340.26 195.952 340.166 191.545 338.094C191.508 335.778 191.494 333.582 191.317 331.268Z"/><path fill="#B09DC2" d="M531.585 217.425C534.693 216.283 543.483 214.854 543.745 219.302C545.37 246.944 546.879 277.334 547.376 304.799C547.515 312.828 547.609 320.858 547.658 328.889C547.677 331.471 547.488 337.79 547.818 339.83C547.711 342.444 548.358 342.307 550.617 343.64C547.834 343.579 542.152 342.469 538.817 342.185L538.188 342.564L536.418 341.864C537.403 341.23 537.101 341.534 537.672 340.507L537.293 339.485C535.489 333.009 535.875 308.037 535.295 299.921C535.206 296.954 534.85 294.003 534.651 291.042C534.507 289.797 535.433 288.236 535.305 287.019C533.352 268.51 533.747 249.757 532.309 231.18C532.131 228.88 532.113 226.408 532.015 224.084C531.922 221.887 531.603 219.582 531.585 217.425Z"/><path fill="#B09DC2" d="M684.522 305.961L685.637 305.605C687.414 300.076 686.387 290.562 686.237 284.457C685.87 269.449 684.942 254.214 684.624 239.217C684.52 234.336 693.103 236.582 695.933 238.189C696.275 249.335 700.154 318.512 698.161 324.5C693.912 318.816 690.649 311.995 686.151 306.549C685.608 306.353 685.065 306.157 684.522 305.961Z"/><path fill="#B09DC2" d="M747.1 348.938L748.182 350.249L748.746 349.904C749.259 349.596 751.402 348.299 751.914 348.319C767.196 348.905 783.14 348.4 798.271 350.508C800.957 350.883 801.644 357.08 797.978 359.603C792.398 360.607 773.122 358.629 766.107 358.731C764.222 358.758 752.355 358.608 750.736 358.403C748.723 357.577 749.108 358.821 747.636 357.407L749.032 356.231C749.263 354.272 747.815 350.957 747.1 348.938Z"/><path fill="#9565E1" d="M701.437 444.237C703.588 443.606 709.774 441.544 711.527 441.411L712.478 442.509C715.703 441.942 716.084 439.853 719.526 440.118L719.919 440.625L719.179 441.782C720.439 441.456 721.723 440.092 721.431 440.101C729.356 439.87 734.815 437.417 742.712 439.936C744.854 440.62 742.41 434.842 750.783 440.618C754.399 437.154 754.046 438.641 759.407 438.537C761.146 438.503 765.263 438.74 766.771 439.343L767.32 440.839L768.247 441.084C768.209 439.826 767.994 440.121 768.469 439.239C773.585 439.563 773.774 439.585 777.451 442.789C779.927 442.852 779.047 440.862 780.955 441.269C790.795 443.37 801.168 445.469 810.797 448.288C813.458 449.819 811.051 449.417 813.087 450.648C814.54 451.527 821.547 451.125 822.484 451.651C827.475 454.458 825.657 455.64 831.967 456.138C835.982 456.455 844.182 461.579 847.396 464.243L848.805 463.366C853.296 465.332 856.75 467.962 861.279 469.789C870.752 472.584 878.154 477.744 886.22 483.203C891.599 486.844 897.37 490.147 902.473 494.16C918.089 506.442 939.993 531.858 949.558 549.33C979.237 603.543 982.736 664.526 965.058 723.22C961.831 733.935 957.59 744.188 952.649 754.225C951.154 757.26 946.253 764.545 945.963 767.173C945.671 769.82 941.21 774.312 939.463 776.516C931.705 786.302 924.236 795.854 915.096 804.442C911.608 807.719 907.72 810.526 904.099 813.648C900.062 817.128 896.344 820.799 892.094 824.046C852.635 854.19 795.804 872.215 746.705 876.048C735.43 876.928 723.827 876.538 712.55 876.049C706.985 875.808 701.324 876.037 695.789 875.373C694.543 875.224 693.741 874.795 692.668 874.221C691.52 873.607 674.541 870.15 671.439 869.329C659.241 866.102 639.968 858.64 629.065 852.426C627.861 852.871 627.887 852.797 626.583 852.724C614.705 845.312 611.281 840.779 601.152 831.72C588.455 820.365 576.944 811.525 565.957 798.106C565.184 796.44 559.513 790.791 558.008 788.736C555.684 785.563 552.64 781.589 550.779 778.097C544.053 765.479 537.469 752.44 533.261 738.741C531.281 732.293 530.581 725.966 528.295 719.301L527.994 718.439C527.133 715.843 527.91 706.466 526.279 705.016C527.16 696.653 523.807 692.673 524.624 685.999C525.76 684.887 525.838 684.974 526.32 683.497C525.874 682.336 525.688 681.915 525.065 680.872L524.539 679.999C524.438 672.435 524.662 677.909 526.698 675.252C525.629 674.829 525.277 674.583 524.287 673.978C523.808 672.176 524.094 663.855 524.324 661.804C526.946 660.642 527.207 662.456 528.839 661.284C527.375 661.042 526.159 661.051 525.129 660.067L525.211 656.514C525.435 653.199 525.718 653.121 527.186 650.116C524.756 645.748 527.771 636.35 528.73 631.357C529.631 630.697 529.765 630.568 530.532 629.752C529.819 628.63 530.22 629.141 528.681 628.488C529.195 623.309 533.812 609.994 534.979 604.134C535.534 601.346 536.481 600.286 538.268 598.155L538.853 597.464C538.629 596.884 538.405 596.303 538.181 595.722C539.456 592.459 541.083 589.162 542.244 585.869C542.818 584.242 542.102 584.004 543.067 581.803C545.156 579.172 553.977 562.427 555.737 558.417C555.668 558.575 555.897 556.193 555.903 556.131C556.985 552.212 584.592 513.297 588.774 511.129C590.253 511.549 589.812 511.534 591.302 511.532L591.427 510.817C589.704 510.188 590.013 510.652 589.105 509.527C591.737 505.617 596.89 503.337 600.787 497.589C604.506 492.103 617.498 484.221 623.053 479.278C625.684 476.936 629.691 475.758 631.807 472.912C632.515 471.961 632.051 471.952 633.401 471.532L634.498 472.253L635.15 471.743L635.025 470.728C635.89 469.23 640.377 469.276 643.173 465.664C644.632 465.895 646.032 466.346 647.285 465.748C647.294 465.647 647.424 463.969 647.528 463.906C652.646 460.812 658.679 458.887 664.257 456.787C664.301 456.771 665.034 455.45 665.122 455.293C672.345 452.936 682.118 448.331 689.555 445.907C690.159 446.061 690.762 446.216 691.366 446.37C693.719 445.545 697.699 443.749 699.979 444.93L701.437 444.237Z"/><path fill="#040406" d="M754.471 486.413L755.285 487.548C757.199 488.176 758.118 488.627 760.094 488.613L760.67 487.99L760.087 486.945L760.259 486.434C762.564 485.915 764.437 486.972 767.208 487.391L768.249 486.313C770.209 487.215 771.724 487.89 773.742 488.639C775.501 486.442 775.421 486.405 778.243 486.415C778.846 486.975 779.33 487.585 779.815 488.248C782.096 487.753 784.444 486.964 786.465 488.479C786.452 489.624 786.458 490.133 786.588 491.266C788.351 490.903 786.877 489.792 789.254 488.381L790.749 489.512C791.607 489.225 792.473 488.961 793.345 488.723L793.127 489.882L793.755 490.048L794.207 489.153C795.349 489.068 799.04 491.643 800.761 492.481L801.755 491.482C804.973 492.07 806.276 495.82 811.553 495.71C814.983 495.639 815.177 496.91 817.071 499.311C819.115 499.268 816.562 498.824 818.666 497.285C826.144 500.092 833.143 504.036 839.419 508.978C845.795 508.663 847.878 512.522 853.286 515.464C857.904 517.978 862.947 520.461 867.324 523.314C883.362 533.764 897.54 547.054 909.633 561.84C911.567 564.216 916.296 573.213 918.148 576.328C921.626 582.179 926.246 590.537 928.439 596.784C931.503 605.512 933.486 616.177 934.705 625.368C934.994 627.554 938.165 634.568 938.287 636.477C938.586 641.134 938.852 649.456 938.515 653.95C938.154 658.77 938.93 669.256 938.34 673.225C935.908 689.565 931.553 709.628 924.405 724.421C919.851 733.844 912.827 745.323 906.495 753.657C904.728 755.983 901.814 758.837 899.753 761.035C898.025 762.879 895.83 766.855 893.759 767.492C892.635 767.837 892.737 767.727 891.733 768.71C892.005 771.918 886.303 776.512 883.82 778.765C882.89 778.195 883.354 778.259 882.468 778.38C881.572 779.827 881.705 780.148 881.739 781.776C877.551 783.59 870.571 792.284 866.001 795.585C852.197 805.558 839.462 814.396 822.965 819.378C816.835 821.23 811.621 824.663 804.839 826.122C801.873 826.76 794.988 828.183 792.669 829.115C792.067 830.294 791.931 830.544 791.141 831.6C790.432 831.782 789.091 831.772 789.145 831.759C780.366 833.9 768.538 834.427 760.02 836.292C749.392 837.73 737.276 834.601 726.558 836.918C724.876 837.281 724.326 836.596 723.197 835.57L722.787 835.191L721.465 836.238L720.982 835.927L721.199 834.638L720.729 834.153C718.626 836.355 714.927 834.945 711.887 834.611C703.037 833.638 694.754 831.598 686.244 829.043C677.987 826.564 669.288 824.204 661.716 819.957C659.512 818.684 655.264 817.698 654.052 816.817C649.177 813.272 643.935 810.751 639.133 807.164C639.014 806.599 638.895 806.035 638.776 805.47C635.053 803.652 630.282 801.61 627.119 799.013C625.302 797.521 627.238 796.401 625.647 794.649L624.463 795.726L623.284 795.608C604.998 782.608 590.506 757.903 580.986 738.035C579.901 735.77 575.144 723.766 575.244 721.876C575.279 721.231 575.676 720.658 575.891 720.05C569.566 705.843 567.049 677.035 567.971 661.229C567.51 657.599 569.639 652.201 569.61 649.001C569.515 638.312 571.395 628.639 574.406 618.316L576.006 618.045C576.667 615.986 575.359 613.942 575.818 612.874C579.855 603.485 584.348 594.018 589.172 585.003C590.22 583.043 592.829 582.186 593.752 580.455L592.773 579.622C592.576 574.638 598.63 572.694 598.992 571.275C599.917 566.018 603.518 564.136 606.072 560.305C611.458 552.226 617.367 545.472 624.135 538.497C628.717 533.776 634.201 530.035 638.828 525.339C638.833 525.333 638.578 524.203 638.931 523.484C638.982 523.514 640.58 524.441 640.665 524.395C644.084 522.56 647.503 520.756 650.819 518.736C653.074 517.363 655.006 515.396 657.244 514.018C659.549 512.599 662.518 511.558 664.987 510.476C668.324 509.258 671.483 507.384 674.701 505.972C677.329 504.819 678.419 503.02 680.98 503.948C681.033 503.967 687.993 498.267 689.841 499.551C690.299 499.869 692.1 499.611 692.658 499.498C695.473 496.053 704.857 494.371 709.337 493.799C709.677 494.206 710.016 494.616 710.353 495.027C713.235 494.762 715.856 493.655 718.613 492.693C718.715 492.27 718.817 491.847 718.919 491.424C725.696 491.678 729.146 490.141 735.28 487.802C735.723 487.632 735.979 489.196 737.583 488.711C739.799 488.04 742.208 486.404 744.531 487.039C747.86 487.554 751.543 488.399 754.471 486.413Z"/><defs><linearGradient id="gradient_1" gradientUnits="userSpaceOnUse" x1="689.0838" y1="518.40558" x2="758.89001" y2="723.5481"><stop offset="0" stop-color="#C6928C"/><stop offset="1" stop-color="#DDAB9A"/></linearGradient></defs><path fill="url(#gradient_1)" d="M780.02 702.672C775.836 702.706 767.867 703.237 763.373 703.455C762.888 703.479 763 705.029 761.032 705.466C759.654 704.387 759.14 704.025 757.641 703.129C754.457 703.061 756.081 703.767 752.618 705.015C751.299 702.815 750.007 704.049 747.479 704.102C739.888 704.263 732.357 704.31 724.788 705.077C724.294 704.616 723.467 703.528 722.548 703.825C716.129 705.898 701.957 704.143 696.012 704.178C692.931 706.792 692.452 705.104 688.298 704.658L686.355 706.779C686.049 705.875 685.94 705.646 685.542 704.791L684.503 704.535C683.498 705.257 683.079 705.532 681.992 706.118C680.494 705.337 679.917 705.036 678.266 704.478C678.634 705.317 678.497 704.862 678.643 705.855C674.9 705.272 670.193 704.546 666.441 704.486C663.844 704.445 661.849 706.399 658.773 705.403C657.287 704.922 654.873 704.725 653.248 705.036L653.216 706.529L652.174 706.382C652.157 705.262 652.257 705.651 651.856 704.624L650.985 704.613C650.034 705.557 649.777 705.956 648.564 706.524C648.476 706.448 647.13 705.287 646.896 705.273C642.074 704.977 636.721 705.823 631.929 705.901C629.062 705.947 625.115 704.97 622.456 704.938C617.258 704.877 612.425 704.895 607.181 704.904C604.889 704.908 600.677 705.588 598.289 705.907C597.989 705.487 597.688 705.066 597.387 704.645C593.561 704.419 592.262 704.834 588.952 703.158C588.488 702.191 588.595 701.395 588.911 700.402C590.744 696.969 586.093 697.116 586.642 695.905C588.731 691.297 587.729 689.783 586.171 685.382C585.864 684.514 587.587 679.979 586.66 678.282C584.571 674.461 586.626 669.87 586.379 665.487L585.25 664.909L585.421 664.224L586.742 664.01L587.016 663.197L586.197 661.853C586.65 660.193 588.427 656.556 588.469 655.627C588.692 650.652 589.254 645.681 589.373 640.697C589.41 639.15 591.853 635.508 591.97 634.086C592.213 631.137 590.212 630.13 592.508 627.313C593.117 626.566 593.662 625.49 593.976 624.517L592.844 622.891C593.317 621.169 593.358 620.808 594.318 619.233C595.308 619.197 594.762 619.157 595.971 619.394L596.14 618.535L595.207 617.446C595.263 615.457 596.968 616.215 598.427 613.324C598.094 611.723 597.71 610.688 598.123 609.116C599.07 609 598.58 608.985 599.591 609.202C601.625 604.251 603.522 598.837 605.446 593.796C606.814 593.208 607.081 593.09 608.317 592.277L608.407 591.247L606.723 591.376C607.471 589.717 611.6 587.309 611.644 586.424C612.009 578.989 613.634 580.736 618.857 575.733L617.999 574.509C620.227 570.126 632.625 559.069 635.811 554.029C636.186 553.435 641.134 551.496 642.267 550.811C643.506 550.069 644.389 548.853 644.711 547.445C644.773 547.139 644.835 546.833 644.897 546.528C650.139 545.515 649.16 542.999 653.265 540.627C654.44 539.948 653.806 540.553 655.402 539.318C654.62 538.724 654.918 539.09 654.494 538.235L655.24 537.74C655.953 538.614 655.551 538.282 656.4 538.792C663.576 534.614 676.954 528.192 682.611 523.75L682.386 522.463C684.829 521.047 682.01 523.419 685.359 523.364C687.986 521.943 687.496 520.717 689.496 519.084L690.564 519.785C693.171 518.324 692.694 518.252 695.867 517.463L696.594 517.287C697.386 515.788 698.43 513.59 700.022 512.98L701.896 515.322L702.555 515.062L702.21 513.117C704.176 511.743 707.585 514.095 709.52 511.416C711.769 508.301 714.951 510.252 718.136 509.114C722.526 507.544 727.281 507.407 731.844 506.639C749.922 503.867 765.598 504.109 783.572 507.006C789.837 508.015 790.485 510.373 796.714 510.143C798.125 510.091 799.003 511.867 800.988 512.55C804.341 513.74 809.593 513.479 812.109 516.172C814.25 518.464 818.179 518.415 820.999 519.761C826.372 522.328 833.073 524.907 838.154 527.815C844.751 530.714 852.297 537.116 858.294 541.289C858.781 541.628 861.309 543.724 861.344 543.722C864.191 543.543 862.983 543.529 864.892 546.44L865.744 546.64C866.607 545.876 866.57 545.949 866.844 544.831C867.393 546.184 867.508 546.65 867.858 548.026C872.07 552.691 878.63 557.41 883.495 562.519C888.662 567.943 893.355 575.922 898.113 580.497L897.812 582.435C899.039 583.461 899.752 582.847 900.013 583.56C903.338 592.674 906.391 601.369 910.857 610.052C911.724 611.736 911.595 616.994 912.713 618.999C913.566 621.546 914.86 624.858 915.503 627.35C915.876 628.793 914.843 630.042 916.072 631.553L917.454 631.592C916.098 633.355 916.088 638.042 916.852 639.856L917.79 639.625C917.878 642.166 917.56 645.709 918.322 647.887C919.174 647.858 918.773 647.918 919.526 647.732L919.461 648.296L918.283 649.101L918.273 650.032C918.878 650.131 919.374 650.249 919.948 650.478L919.78 651.261L918.283 651.468C917.776 653.64 918.048 656.265 918.139 658.547L918.704 659.063L919.749 658.052C920.059 659.625 918.063 661.266 917.957 664.279C917.698 671.603 916.855 678.743 915.626 685.976L916.426 687.983C915.555 689.698 914.606 691.123 914.616 693.028C914.98 693.472 915.842 694.322 915.86 694.734L914.393 694.771C912.901 696.542 910.26 706.205 908.741 709.013C907.802 710.749 904.701 715.356 904.728 716.904L905.899 718.324C905.451 720.367 903.568 722.078 902.451 723.82C901.825 724.797 902.4 727.03 901.672 727.885C898.037 732.559 894.315 737.227 890.699 741.909C887.597 745.925 881.076 750.97 878.528 754.744C875.993 758.498 866.704 767.867 865.111 770.835L865.881 772.32C861.554 774.746 861.53 771.708 857.818 778.903C855.823 782.771 848.952 787.189 844.852 788.687C844.71 789.596 844.722 789.088 844.925 790.21C835.825 794.226 826.345 802.384 816.868 806.037C808.966 809.084 800.164 812.391 792.05 814.59C789.461 815.167 785.811 817.437 784.758 817.574C775.935 818.717 774.697 815.487 766.714 819.714C765.421 817.801 766.046 818.104 764.252 817.595L763.235 818.075L763.453 818.68C763.786 819.633 763.666 819.27 763.946 820.371L763.02 820.519C761.743 819.524 761.734 819.487 760.732 818.203C759.899 818.884 759.712 819.1 758.998 819.915C755.017 818.593 756.62 816.2 751.964 819.043C750.969 818.835 735.323 817.864 735.102 817.917L734.843 819.466C731.729 818.882 733.104 817.848 731.106 818.786L730.886 820.417L730.17 820.338L729.744 818.656C728.668 819.245 729.203 819.008 728.143 819.379C726.421 818.296 724.532 817.013 722.697 816.188C721.537 817.382 720.847 818.408 719.417 819.01C717.757 818.292 717.329 817.784 715.996 816.609C713.316 816.135 711.454 817.137 708.982 816.338L708.736 815.872C708.344 815.146 708.499 815.418 707.979 814.653L707.402 815.006C706.67 815.444 706.241 815.66 705.484 816.023C702.265 815.127 702.115 814.379 698.329 813.689C688.185 811.841 677.733 809.54 667.845 806.62C666.839 806.309 661.531 800.531 659.537 799.458L658.561 800.316C653.992 798.59 656.796 796.835 649.67 795.809C648.886 793.92 650.494 795.05 649.775 794.035C648.155 791.746 644.273 791.778 643.276 789.107C642.786 787.795 642.423 787.459 641.567 786.84C640.729 787.197 640.555 787.259 639.613 787.352C635.346 783.093 631.396 779.421 626.746 775.578C623.017 772.496 619.188 767.975 615.799 764.373L616.011 764.076L617.931 764.838C616.956 762.381 612.931 761.119 611.154 758.713L611.913 757.268C609.672 754.986 610.438 758.032 609.185 755.463C609.83 752.548 608.85 751.831 606.236 750.619C604.779 747.4 603.888 742.948 602.147 740.105C602.141 740.095 598.992 738.561 598.722 738.43L599.789 737.265C598.423 734.32 596.314 731.787 596.464 729.188C596.533 728.003 596.384 725.634 595.784 724.614L594.586 725.4C593.719 724.193 593.351 719.781 594.434 719.759C606.376 719.512 624.877 718.52 636.266 720.264C636.654 719.147 636.483 719.612 636.241 718.205C637.893 717.728 639.365 718.944 640.8 719.303C644.395 720.204 651.77 719.53 655.706 719.371C655.802 718.263 655.806 718.805 655.102 717.582C656.896 717.312 657.86 719.563 659.591 719.532C673.944 719.275 688.43 719.678 702.757 719.106C704.176 719.05 707.243 716.863 708.747 717.436L708.624 718.395C710.025 718.912 718.922 718.029 721.363 718.021C727.42 718 735.755 719.184 741.487 718.775C742.238 717.855 742.196 717.786 742.623 716.657L743.7 716.406C744.715 717.57 745.481 719.511 746.965 719.356C755.678 718.447 764.28 718.101 773.016 717.96C774.181 717.941 775.776 713.827 776.79 713.13C779.211 712.168 781.716 711.798 783.927 710.287C782.842 707.935 781.377 710.539 782.91 706.314C781.891 704.717 781.301 704.098 780.02 702.672Z"/><path fill="#E7BEBC" d="M859.5 543.75C857.321 541.34 841.429 530.205 838.18 528.537L838.154 527.815C844.751 530.714 852.297 537.116 858.294 541.289C858.781 541.628 861.309 543.724 861.344 543.722C864.191 543.543 862.983 543.529 864.892 546.44L865.744 546.64C866.607 545.876 866.57 545.949 866.844 544.831C867.393 546.184 867.508 546.65 867.858 548.026C872.07 552.691 878.63 557.41 883.495 562.519C888.662 567.943 893.355 575.922 898.113 580.497L897.812 582.435C899.039 583.461 899.752 582.847 900.013 583.56C903.338 592.674 906.391 601.369 910.857 610.052C911.724 611.736 911.595 616.994 912.713 618.999C913.566 621.546 914.86 624.858 915.503 627.35C915.876 628.793 914.843 630.042 916.072 631.553L917.454 631.592C916.098 633.355 916.088 638.042 916.852 639.856L917.79 639.625C917.878 642.166 917.56 645.709 918.322 647.887C919.174 647.858 918.773 647.918 919.526 647.732L919.461 648.296L918.283 649.101L918.273 650.032C918.878 650.131 919.374 650.249 919.948 650.478L919.78 651.261L918.283 651.468C917.776 653.64 918.048 656.265 918.139 658.547L918.704 659.063L919.749 658.052C920.059 659.625 918.063 661.266 917.957 664.279C917.698 671.603 916.855 678.743 915.626 685.976L916.426 687.983C915.555 689.698 914.606 691.123 914.616 693.028C914.98 693.472 915.842 694.322 915.86 694.734L914.393 694.771C912.901 696.542 910.26 706.205 908.741 709.013C907.802 710.749 904.701 715.356 904.728 716.904L905.899 718.324C905.451 720.367 903.568 722.078 902.451 723.82C901.825 724.797 902.4 727.03 901.672 727.885C898.037 732.559 894.315 737.227 890.699 741.909C887.597 745.925 881.076 750.97 878.528 754.744C875.993 758.498 866.704 767.867 865.111 770.835L865.881 772.32C861.554 774.746 861.53 771.708 857.818 778.903C855.823 782.771 848.952 787.189 844.852 788.687C844.71 789.596 844.722 789.088 844.925 790.21C835.825 794.226 826.345 802.384 816.868 806.037C808.966 809.084 800.164 812.391 792.05 814.59C789.461 815.167 785.811 817.437 784.758 817.574C775.935 818.717 774.697 815.487 766.714 819.714C765.421 817.801 766.046 818.104 764.252 817.595L763.235 818.075L763.453 818.68C763.786 819.633 763.666 819.27 763.946 820.371L763.02 820.519C761.743 819.524 761.734 819.487 760.732 818.203C759.899 818.884 759.712 819.1 758.998 819.915C755.017 818.593 756.62 816.2 751.964 819.043C750.969 818.835 735.323 817.864 735.102 817.917L734.843 819.466C731.729 818.882 733.104 817.848 731.106 818.786L730.886 820.417L730.17 820.338L729.744 818.656C728.668 819.245 729.203 819.008 728.143 819.379C726.421 818.296 724.532 817.013 722.697 816.188C721.537 817.382 720.847 818.408 719.417 819.01C717.757 818.292 717.329 817.784 715.996 816.609C713.316 816.135 711.454 817.137 708.982 816.338L708.736 815.872C708.344 815.146 708.499 815.418 707.979 814.653L707.402 815.006C706.67 815.444 706.241 815.66 705.484 816.023C702.265 815.127 702.115 814.379 698.329 813.689C688.185 811.841 677.733 809.54 667.845 806.62C666.839 806.309 661.531 800.531 659.537 799.458L658.561 800.316C653.992 798.59 656.796 796.835 649.67 795.809C648.886 793.92 650.494 795.05 649.775 794.035C648.155 791.746 644.273 791.778 643.276 789.107C642.786 787.795 642.423 787.459 641.567 786.84C640.729 787.197 640.555 787.259 639.613 787.352C635.346 783.093 631.396 779.421 626.746 775.578C623.017 772.496 619.188 767.975 615.799 764.373L616.011 764.076L617.931 764.838C616.956 762.381 612.931 761.119 611.154 758.713L611.913 757.268C609.672 754.986 610.438 758.032 609.185 755.463C609.83 752.548 608.85 751.831 606.236 750.619C604.779 747.4 603.888 742.948 602.147 740.105C602.141 740.095 598.992 738.561 598.722 738.43L599.789 737.265C598.423 734.32 596.314 731.787 596.464 729.188C596.533 728.003 596.384 725.634 595.784 724.614L594.586 725.4C593.719 724.193 593.351 719.781 594.434 719.759C606.376 719.512 624.877 718.52 636.266 720.264C636.654 719.147 636.483 719.612 636.241 718.205C637.893 717.728 639.365 718.944 640.8 719.303C644.395 720.204 651.77 719.53 655.706 719.371C655.802 718.263 655.806 718.805 655.102 717.582C656.896 717.312 657.86 719.563 659.591 719.532C673.944 719.275 688.43 719.678 702.757 719.106C704.176 719.05 707.243 716.863 708.747 717.436L708.624 718.395C710.025 718.912 718.922 718.029 721.363 718.021C727.42 718 735.755 719.184 741.487 718.775C742.238 717.855 742.196 717.786 742.623 716.657L743.7 716.406C744.715 717.57 745.481 719.511 746.965 719.356C755.678 718.447 764.28 718.101 773.016 717.96C774.181 717.941 775.776 713.827 776.79 713.13C779.211 712.168 781.716 711.798 783.927 710.287C782.842 707.935 781.377 710.539 782.91 706.314C781.891 704.717 781.301 704.098 780.02 702.672C781.952 702.41 785.2 700.99 786.832 701.066C796.234 701.7 806.361 701.051 815.6 701.103C828.992 701.178 830.837 700.636 841.763 693.449C853.007 686.053 856.977 682.248 861.654 669.496C859.822 662.679 863.213 653.907 862.929 647.076C861.829 620.619 860.656 594.366 860.684 567.84C860.692 559.623 859.341 552.064 859.5 543.75Z"/><path fill="#FDFAFA" d="M526.279 705.016C525.624 704.686 524.835 704.289 523.913 703.824C519.381 704.696 514.107 704.68 509.641 704.788L508.978 705.981C506.888 706.09 503.196 703.572 502.1 703.711C500.649 703.897 494.345 704.34 493.117 704.685C488.317 706.033 482.943 702.839 479.119 705.014C476.653 706.416 473.584 704.019 470.99 703.39C470.99 703.39 468.648 704.666 468.648 704.666C461.792 704.242 453.846 704.033 447.136 704.009C446.349 703.089 446.694 703.355 445.591 702.793C444.514 704.484 442.419 704.108 440.296 703.805C430.116 702.35 421.477 702.415 411.363 704.047C408.584 704.496 404.241 700.824 400.288 702.693L399.859 704.647C397.672 704.488 394.585 702.099 393.232 702.139C378.085 702.578 362.36 701.175 347.299 702.571C346.946 701.626 347.189 702.072 346.558 701.24C338.585 701.5 334.432 700.874 327.405 700.743C320.04 700.62 312.674 700.852 305.331 701.438L304.267 700.343C300.823 700.059 304.244 701.216 301.092 701.776C301.222 701.239 301.351 700.701 301.481 700.163C299.423 700.978 297.11 699.819 293.506 699.657C286.813 699.18 282.807 698.583 275.939 699.843C274.101 700.18 268.957 695.926 265.046 699.601C260.536 696.931 257.274 696.815 253.879 701.053L253.197 700.953C253.139 699.611 253.232 700.262 252.929 698.997C232.357 696.085 211.487 700.432 191.681 694.166C188.743 693.237 184.859 690.97 182.079 689.437L181.032 690.024C177.315 688.115 169.547 677.04 168.306 673.075C162.192 653.533 164.802 632.391 160.585 612.444C160.425 611.691 161.941 612.246 162.033 610.344L160.784 609.712C160.835 603.684 160.85 600.256 159.628 594.394C158.712 593.718 158.083 593.226 157.224 592.48L157.435 591.586C159.02 590.801 158.629 591.273 159.539 589.986C159.18 588.794 158.838 587.597 158.512 586.395C156.838 580.464 159.553 571.888 157.908 566.661C156.33 561.645 158.651 561.301 158.184 558.388C157.279 552.735 156.808 547.285 156.348 541.545C156.06 537.945 155.939 534.908 156.059 531.253C156.078 530.682 155.021 527.359 154.99 526.452C154.929 524.7 155.294 523.117 155.305 521.362C155.335 517.064 155.267 512.783 155.285 508.482C155.295 506.124 154.91 503.579 154.599 501.237C154.599 501.237 155.622 499.228 155.622 499.227C155.508 497.051 154.235 495.412 154.256 493.205C154.3 488.564 154.241 483.921 153.735 479.298C153.401 476.241 153.516 472.251 152.837 469.312L151.598 469.013C152.301 467.619 152.285 467.859 153.499 466.748C153.784 462.926 153.028 465.481 152.649 462.346L153.935 461.761C154.279 459.716 152.883 458.178 152.663 456.168C152.151 451.51 153.434 433.325 152.166 430.13C150.576 426.123 152.45 425.659 152.491 422.03C152.536 417.978 151.265 413.843 151.03 409.778C150.396 398.808 153.381 398.625 149.441 386.323C149.903 385.826 151.4 383.978 151.349 383.5C150.878 379.058 150.133 373.391 149.832 369.022C149.706 367.198 151.416 363.884 151.472 360.759C148.343 356.779 151.267 357.971 151.047 356.514C150.199 350.889 150.297 345.154 149.808 339.541C148.948 329.682 150.446 320.029 148.698 310.247C147.931 305.95 149.336 303.837 150.333 299.757C150.695 298.277 148.482 295.031 148.753 293.375C149.469 289.186 149.413 281.756 148.746 277.51L148.018 277.689C147.315 277.236 147.733 277.476 147.77 275.842C147.872 271.226 148.957 264.35 147.424 260.005C145.658 254.998 148.022 253.575 147.81 249.87C147.613 246.418 145.967 240.976 145.653 237.011C145.455 234.521 147.348 231.85 147.243 229.041C147.055 223.975 146.663 216.786 146.434 211.534C145.962 211.106 145.489 210.679 145.016 210.252C144.596 208.738 146.62 203.226 146.578 202.295C146.363 197.562 145 190.684 144.263 185.981L144.519 185.443C148.031 177.955 141.54 180.674 145.369 173.254C144.749 173.029 144.161 172.803 143.53 172.618C145.221 171.715 144.682 172.344 145.526 170.95C144.936 169.894 144.759 169.77 143.915 168.897C144.003 163.872 142.44 151.23 144.503 147.995C148.652 146.192 154.29 148.78 158.631 148.829C160.026 148.845 163.731 148.078 165.233 147.781C166.907 148.844 167.684 149.483 169.701 149.44C187.724 149.055 205.658 150.25 223.565 151.836C224.177 151.89 224.504 151.091 224.877 150.574L225.506 150.656C224.965 151.69 225.049 151.188 225.081 152.122C251.154 152.818 277.452 155.971 303.634 155.638C307.373 155.301 312.943 156.735 316.482 156.389C325.517 155.504 333.828 157.029 342.652 157.293L343.166 155.945C349.905 157.063 355.043 157.971 362.139 158.233C366.696 158.401 371.288 157.99 375.7 158.193L420.85 160.142C430.099 160.623 439.477 161.023 448.702 161.777C454.069 162.215 459.442 163.077 464.81 163.365C505.173 165.535 545.537 167.13 585.862 170.034C596.529 170.802 607.161 171.194 617.842 172.076C621.181 172.352 623.768 171.73 626.996 172.895C629.161 173.675 654.628 174.874 655.898 174.176C659.865 171.995 666.308 175.753 670.885 175.375C672.231 175.264 673.971 174.381 675.221 173.869C677.028 175.136 678.668 176.637 680.918 175.442C683.054 174.308 686.32 175.39 688.66 175.82C698.258 177.58 708.192 177.825 717.929 177.78C719.532 177.773 721.95 179.435 723.794 179.469C732.4 179.625 741.028 179.278 749.62 179.459C757.833 179.57 765.809 183.645 773.433 181.789C775.764 181.222 776.255 181.78 778.484 182.608C782.241 184.002 787.352 182.616 792.17 182.761C796.887 182.903 801.768 184.179 806.377 184.218C820.564 184.337 835.136 185.889 849.306 185.468C849.452 185.397 849.598 185.326 849.744 185.256L851.005 186.439C850.681 195.639 852.156 203.615 852.297 212.553C852.519 226.684 853.246 240.6 853.712 254.717C854.115 263.272 855.336 271.75 856.179 280.243C856.593 286.223 855.451 293.108 855.949 298.982C857.18 312.875 857.79 326.797 857.889 340.74C857.941 348.126 856.732 351.768 858.847 359.175C858.411 365.813 855.769 365.578 859.415 371.565C859.521 371.739 858.583 389.272 858.676 390.736C859.982 411.457 860.462 432.066 860.919 452.803C861.035 458.101 859.845 464.916 861.279 469.789C856.75 467.962 853.296 465.332 848.805 463.366L847.396 464.243C844.182 461.579 835.982 456.455 831.967 456.138C825.657 455.64 827.475 454.458 822.484 451.651C821.547 451.125 814.54 451.527 813.087 450.648C811.051 449.417 813.458 449.819 810.797 448.288C810.169 446.661 809.01 399.015 808.749 393.001L803.881 295.805C803.256 284.589 803.376 273.128 802.709 261.769C802.035 250.299 803.839 235.306 795.338 226.027C792.126 222.522 785.158 218.665 780.483 218.046C771.426 217.145 761.872 216.587 752.736 215.984C730.085 214.519 707.414 213.384 684.73 212.581L542.505 205.375C465.449 201.298 388.362 197.823 311.252 194.95C283.139 193.737 255.003 192.012 226.893 190.679C215.378 190.132 203.519 190.46 191.976 190.546C189.642 191.936 189.065 192.347 187.069 194.182C186.733 220.313 188.448 242.258 189.18 268.059L190.237 306.793C190.449 314.152 190.557 324.101 191.317 331.268C191.494 333.582 191.508 335.778 191.545 338.094C191.774 381.027 194.358 425.066 195.976 468.075L197.913 515.15C198.197 521.628 198.433 534.305 199.446 540.208C199.865 544.357 199.996 546.909 199.973 551.071C200.597 569.62 201.797 588.217 202.474 606.798C202.821 616.311 203.416 626.227 203.985 635.73C204.089 637.452 204.738 641.644 205.979 642.775C207.526 644.184 209.466 645.177 211.594 645.271C218.524 645.579 225.532 645.729 232.467 645.97L285.995 647.726L342.133 649.649C350.815 649.913 359.77 650.878 368.47 650.411C372.388 650.812 376.725 650.856 380.696 650.978L470.278 654.141C487.719 654.78 508.047 654.93 525.211 656.514L525.129 660.067C526.159 661.051 527.375 661.042 528.839 661.284C527.207 662.456 526.946 660.642 524.324 661.804C524.094 663.855 523.808 672.176 524.287 673.978C525.277 674.583 525.629 674.829 526.698 675.252C524.662 677.909 524.438 672.435 524.539 679.999L525.065 680.872C525.688 681.915 525.874 682.336 526.32 683.497C525.838 684.974 525.76 684.887 524.624 685.999C523.807 692.673 527.16 696.653 526.279 705.016Z"/><path fill="#040406" d="M527.994 718.439C518.878 718.716 498.298 717.67 488.258 718.201C487.914 717.771 487.57 717.341 487.226 716.911C483.223 717.502 478.855 718.406 474.835 718.551C474.61 718.56 472.783 716.645 470.811 716.25C469.4 716.978 468.16 717.436 466.561 717.479C448.507 717.962 430.452 716.167 412.484 716.141C413.844 716.143 409.644 715.391 411.015 715.471C408.426 715.32 403.579 716.114 400.996 716.367C400.086 715.524 400.116 715.461 398.994 714.984C398.286 715.492 397.675 715.957 396.992 716.498C390.179 713.926 365.407 716.762 357.185 715.543C346.894 714.017 339.931 715.707 330.067 716.354C324.739 716.703 314.998 714.752 309.486 713.873C309.28 714.065 308.278 715.055 308.025 715.035C302.203 714.574 295.399 713.714 289.697 713.15C286.766 712.86 282.83 713.513 279.891 713.23C272.281 712.499 264.888 711.833 257.291 711.585C254.995 711.51 251.459 711.979 248.705 711.94C239.777 711.815 230.986 711.371 222.061 711.169C216.754 711.049 212.201 709.179 207.487 709.499C205.828 709.612 205.026 710.611 202.2 709.217C198.965 707.62 196.802 708.749 194.495 708.573C185.382 707.878 173.029 701.46 166.444 695.572C156.336 686.534 152.929 680.434 149.045 667.815C148.257 665.255 146.389 661.029 146.242 658.617L147.529 657.231C147.843 655.147 145.177 648.25 145.438 647.502C147.707 641.002 144.828 638.258 144.452 632.985L145.376 632.363C145.624 629.985 143.306 624.148 142.946 621.374C142.667 619.229 143.683 617.942 143.783 615.339C142.662 614.435 142.673 614.516 141.971 613.277C141.942 611.344 142.515 609.408 143.268 607.705C144.563 604.774 141.849 601.774 141.832 598.875C141.821 597.181 143.535 595.865 143.291 593.666L141.642 593.239C140.875 591.718 140.798 587.072 140.58 584.988C139.94 578.868 139.099 572.718 140.504 566.626C139.978 565.424 138.726 563.603 138.733 562.305C138.746 559.544 139.764 555.656 139.174 553.027C137.784 546.827 138.141 540.118 137.745 533.778C137.591 531.307 135.134 530.431 136.009 527.756C137.361 523.625 136.87 519.631 136.492 515.401C136.048 510.962 136.422 506.345 136.533 501.88C136.56 500.829 135.288 498.545 135.304 497.852C135.385 494.094 135.849 490.307 135.802 486.521C136.038 481.628 134.465 478.521 133.988 473.956C133.1 465.459 133.762 456.833 133.846 448.329C133.976 444.4 132.848 440.126 132.924 436.273C133.058 429.518 133.472 422.745 133.421 415.971C133.421 415.971 134.653 414.43 134.778 414.273C134.561 414.019 132.844 411.917 132.831 411.801C131.085 396.341 131.502 379.39 131.82 364.246C132.052 353.212 130.809 343.86 130.828 333.236C130.843 325.176 131.249 318.584 131.716 310.748C131.806 309.231 130.643 306.946 130.561 304.609C130.076 290.93 129.965 277.485 128.57 263.829C128.531 260.828 129.251 257.667 129.115 254.672C128.877 249.454 128.301 244.275 128.496 239.037C128.706 233.418 127.829 227.814 127.723 222.239C127.574 214.479 127.498 207.026 126.86 199.281C129.104 197.893 127.095 195.144 127.096 192.72C127.1 176.079 127.606 160.278 124.69 143.73C122.801 133.011 128.789 115.681 135.259 107.133C145.132 94.1513 160.278 86.2449 176.573 85.5653C184.386 85.187 197.526 86.665 205.686 86.5687C208.564 86.5347 210.907 85.4695 212.986 85.5213L234.492 86.1922C243.257 86.4622 249.815 88.2914 258.852 86.4752C261.508 85.9413 267.332 87.1523 271.098 87.1435C291.571 87.121 312.569 87.124 332.952 89.0686C337.104 89.4647 337.408 88.5588 341.096 88.3161C342.203 89.1693 342.425 89.5115 343.792 89.7599L345.356 88.6532C349.035 88.1734 359.333 88.9272 363.381 89.2672C367.028 89.5735 365.254 90.9736 368.827 89.0837C371.178 87.8402 382.901 90.884 386.243 90.7758C387.697 90.7288 385.706 89.9075 388.221 89.4158L389.005 90.8074C391.074 91.2061 394.565 90.2247 397.312 90.0828L398.239 91.4092C401.071 90.962 402.699 90.5924 405.445 91.5467L406.301 91.1303C406.836 89.9441 406.456 90.4563 407.449 89.5979C415.527 90.7556 421.132 91.1795 429.269 90.6519C432.876 90.4179 440.221 92.6631 443.861 93.4276C445.807 93.8363 446.101 93.0086 447.734 91.9057C450.499 91.4073 454.25 93.18 456.744 93.1736C465.358 93.1513 478.865 91.7078 486.99 93.4613C489.795 95.3423 495.344 92.4108 497.387 92.8566C506.951 94.9423 518.105 92.7252 527.249 94.8655C531.763 95.9222 532.702 94.007 536.171 94.3153C539.232 94.5872 542.25 95.5399 545.392 95.8256C547.824 93.4211 550.901 96.319 554.259 96.4297C559.343 96.5972 564.41 96.578 569.497 96.5695C570.396 97.3135 569.9 96.9507 571 97.6368C571.859 97.0672 571.581 97.2812 572.301 96.7049L572.759 96.3321C579.356 100.109 577.288 96.1358 580.04 96.8658C584.817 99.8692 597.67 96.614 600.005 97.3202C609.06 100.332 616.776 100.036 626.21 99.7052C634.986 99.3971 705.056 105.468 707.031 104.337L707.4 103.605C708.185 106.323 730.559 106.283 734.752 106.397C739.33 106.521 742.049 105.618 747.592 106.974C752.98 108.292 759.613 105.979 765.14 109.161C766.415 109.794 779.509 108.347 782.043 108.796C806.437 111.729 841.152 122.38 845.643 150.589C846.033 153.037 850.51 165.823 850.693 164.199C850.065 169.782 853.249 177.477 850.825 182.703C850.222 184.003 851.38 183.631 851.005 186.439L849.744 185.256C849.598 185.326 849.452 185.397 849.306 185.468C835.136 185.889 820.564 184.337 806.377 184.218C801.768 184.179 796.887 182.903 792.17 182.761C787.352 182.616 782.241 184.002 778.484 182.608C776.255 181.78 775.764 181.222 773.433 181.789C765.809 183.645 757.833 179.57 749.62 179.459C741.028 179.278 732.4 179.625 723.794 179.469C721.95 179.435 719.532 177.773 717.929 177.78C708.192 177.825 698.258 177.58 688.66 175.82C686.32 175.39 683.054 174.308 680.918 175.442C678.668 176.637 677.028 175.136 675.221 173.869C673.971 174.381 672.231 175.264 670.885 175.375C666.308 175.753 659.865 171.995 655.898 174.176C654.628 174.874 629.161 173.675 626.996 172.895C623.768 171.73 621.181 172.352 617.842 172.076C607.161 171.194 596.529 170.802 585.862 170.034C545.537 167.13 505.173 165.535 464.81 163.365C459.442 163.077 454.069 162.215 448.702 161.777C439.477 161.023 430.099 160.623 420.85 160.142L375.7 158.193C371.288 157.99 366.696 158.401 362.139 158.233C355.043 157.971 349.905 157.063 343.166 155.945L342.652 157.293C333.828 157.029 325.517 155.504 316.482 156.389C312.943 156.735 307.373 155.301 303.634 155.638C277.452 155.971 251.154 152.818 225.081 152.122C225.049 151.188 224.965 151.69 225.506 150.656L224.877 150.574C224.504 151.091 224.177 151.89 223.565 151.836C205.658 150.25 187.724 149.055 169.701 149.44C167.684 149.483 166.907 148.844 165.233 147.781C163.731 148.078 160.026 148.845 158.631 148.829C154.29 148.78 148.652 146.192 144.503 147.995C142.44 151.23 144.003 163.872 143.915 168.897C144.759 169.77 144.936 169.894 145.526 170.95C144.682 172.344 145.221 171.715 143.53 172.618C144.161 172.803 144.749 173.029 145.369 173.254C141.54 180.674 148.031 177.955 144.519 185.443L144.263 185.981C145 190.684 146.363 197.562 146.578 202.295C146.62 203.226 144.596 208.738 145.016 210.252C145.489 210.679 145.962 211.106 146.434 211.534C146.663 216.786 147.055 223.975 147.243 229.041C147.348 231.85 145.455 234.521 145.653 237.011C145.967 240.976 147.613 246.418 147.81 249.87C148.022 253.575 145.658 254.998 147.424 260.005C148.957 264.35 147.872 271.226 147.77 275.842C147.733 277.476 147.315 277.236 148.018 277.689L148.746 277.51C149.413 281.756 149.469 289.186 148.753 293.375C148.482 295.031 150.695 298.277 150.333 299.757C149.336 303.837 147.931 305.95 148.698 310.247C150.446 320.029 148.948 329.682 149.808 339.541C150.297 345.154 150.199 350.889 151.047 356.514C151.267 357.971 148.343 356.779 151.472 360.759C151.416 363.884 149.706 367.198 149.832 369.022C150.133 373.391 150.878 379.058 151.349 383.5C151.4 383.978 149.903 385.826 149.441 386.323C153.381 398.625 150.396 398.808 151.03 409.778C151.265 413.843 152.536 417.978 152.491 422.03C152.45 425.659 150.576 426.123 152.166 430.13C153.434 433.325 152.151 451.51 152.663 456.168C152.883 458.178 154.279 459.716 153.935 461.761L152.649 462.346C153.028 465.481 153.784 462.926 153.499 466.748C152.285 467.859 152.301 467.619 151.598 469.013L152.837 469.312C153.516 472.251 153.401 476.241 153.735 479.298C154.241 483.921 154.3 488.564 154.256 493.205C154.235 495.412 155.508 497.051 155.622 499.227C155.622 499.228 154.599 501.237 154.599 501.237C154.91 503.579 155.295 506.124 155.285 508.482C155.267 512.783 155.335 517.064 155.305 521.362C155.294 523.117 154.929 524.7 154.99 526.452C155.021 527.359 156.078 530.682 156.059 531.253C155.939 534.908 156.06 537.945 156.348 541.545C156.808 547.285 157.279 552.735 158.184 558.388C158.651 561.301 156.33 561.645 157.908 566.661C159.553 571.888 156.838 580.464 158.512 586.395C158.838 587.597 159.18 588.794 159.539 589.986C158.629 591.273 159.02 590.801 157.435 591.586L157.224 592.48C158.083 593.226 158.712 593.718 159.628 594.394C160.85 600.256 160.835 603.684 160.784 609.712L162.033 610.344C161.941 612.246 160.425 611.691 160.585 612.444C164.802 632.391 162.192 653.533 168.306 673.075C169.547 677.04 177.315 688.115 181.032 690.024L182.079 689.437C184.859 690.97 188.743 693.237 191.681 694.166C211.487 700.432 232.357 696.085 252.929 698.997C253.232 700.262 253.139 699.611 253.197 700.953L253.879 701.053C257.274 696.815 260.536 696.931 265.046 699.601C268.957 695.926 274.101 700.18 275.939 699.843C282.807 698.583 286.813 699.18 293.506 699.657C297.11 699.819 299.423 700.978 301.481 700.163C301.351 700.701 301.222 701.239 301.092 701.776C304.244 701.216 300.823 700.059 304.267 700.343L305.331 701.438C312.674 700.852 320.04 700.62 327.405 700.743C334.432 700.874 338.585 701.5 346.558 701.24C347.189 702.072 346.946 701.626 347.299 702.571C362.36 701.175 378.085 702.578 393.232 702.139C394.585 702.099 397.672 704.488 399.859 704.647L400.288 702.693C404.241 700.824 408.584 704.496 411.363 704.047C421.477 702.415 430.116 702.35 440.296 703.805C442.419 704.108 444.514 704.484 445.591 702.793C446.694 703.355 446.349 703.089 447.136 704.009C453.846 704.033 461.792 704.242 468.648 704.666C468.648 704.666 470.99 703.39 470.99 703.39C473.584 704.019 476.653 706.416 479.119 705.014C482.943 702.839 488.317 706.033 493.117 704.685C494.345 704.34 500.649 703.897 502.1 703.711C503.196 703.572 506.888 706.09 508.978 705.981L509.641 704.788C514.107 704.68 519.381 704.696 523.913 703.824C524.835 704.289 525.624 704.686 526.279 705.016C527.91 706.466 527.133 715.843 527.994 718.439Z"/><path fill="#040406" d="M511.477 880.625C513.944 881.235 515.677 882.734 517.339 884.621C516.828 885.845 517.064 885.411 516.091 886.402C517.885 887.167 519.625 886.599 521.071 887.928C534.134 899.928 546.47 912.362 560.551 923.244C563.158 925.258 564.742 928.483 567.637 929.953C568.313 930.327 568.047 930.165 568.705 930.856C567.56 933.649 564.705 936.822 562.728 939.269L562.211 939.268L562.255 937.125C559.116 941.212 559.012 946.768 557.038 947.224L555.708 946.701C555.719 948.232 555.671 947.637 556.536 949.144C556.221 954.512 549.167 954.85 548.024 959.073C546.287 965.49 540.588 967.708 537.102 972.958L537.419 974.42L519.353 995.518C516.077 999.359 513.603 1002.75 509.953 1006.38C506.039 1010.27 506.344 1007.57 504.606 1009.21L505.066 1009.44C505.626 1009.73 506.06 1009.99 506.597 1010.31C506.515 1010.61 499.02 1022.15 498.06 1024L382.173 1024C383.388 1020.1 384.64 1019.98 386.99 1016.87C388.881 1014.36 390.344 1011.33 392.436 1008.95L394.226 1009.19C396.199 1007.24 397.262 1003.62 399.285 1001.31C401.834 998.383 402.354 1000.15 404.901 998.942C404.003 997.49 404.122 998.108 404.069 996.544C405.964 993.668 408.924 988.519 411.043 986.09C411.569 985.487 415.67 984.161 416.775 982.908C419.985 979.268 423.826 976.607 426.748 972.615L426.019 971.421C426.82 967.386 428.654 972.102 430.303 967.456C431.077 965.274 434.358 962.16 436.245 960.551C440.83 960.467 437.846 955.667 442.027 953.447C442.89 952.844 446.825 950.554 447.221 949.828C451.186 942.56 457.223 937.451 463.269 931.727C462.538 931.017 462.836 931.432 462.394 930.468C463.168 929.378 463.863 929.355 465.182 928.966L465.7 928.818C465.327 927.709 465.404 928.087 465.426 926.814C469.391 922.152 473.77 917.859 478.51 913.986C479.445 909.765 479.69 910.044 483.213 907.19L483.778 908.357C485.549 906.73 483.246 907.493 484.096 906.064C488.664 898.381 496.808 893.035 503.197 886.963C505.993 884.306 508.961 882.994 511.477 880.625Z"/><path fill="#9565E1" d="M565.957 798.106C576.944 811.525 588.455 820.365 601.152 831.72C611.281 840.779 614.705 845.312 626.583 852.724C627.887 852.797 627.861 852.871 629.065 852.426C626.932 857.281 625.639 858.99 622.781 863.253C620.616 866.482 613.851 873.031 613.03 875.827C617.937 879.734 618.238 885.044 619.577 890.926C617.379 897.759 609.308 911.425 600.564 909.203C599.075 909.684 596.781 910.66 595.413 910.316C592.503 914.113 594.902 921.835 591.063 927.28C586.279 934.063 574.916 935.269 568.705 930.856C568.047 930.165 568.313 930.327 567.637 929.953C564.742 928.483 563.158 925.258 560.551 923.244C546.47 912.362 534.134 899.928 521.071 887.928C519.625 886.599 517.885 887.167 516.091 886.402C517.064 885.411 516.828 885.845 517.339 884.621C515.677 882.734 513.944 881.235 511.477 880.625C497.678 871.791 494.968 853.06 511.753 844.538C511.965 844.43 515.459 843.874 515.979 843.783L516.395 843.537C518.081 842.529 519.087 841.416 520.503 840.052L518.676 834.533C517.649 831.232 516.739 829.022 518.723 825.996C522.171 818.919 523.883 812.474 532.854 810.139C540.943 808.034 546.737 811.979 553.29 815.937C556.243 813.282 561.673 804.887 564.664 801.409C564.241 801.9 564.485 800.109 565.957 798.106Z"/><path fill="#9565E1" d="M511.477 880.625C497.678 871.791 494.968 853.06 511.753 844.538C511.965 844.43 515.459 843.874 515.979 843.783C516.507 845.725 516.287 846.184 517.496 847.398C518.677 847.482 518.633 847.412 519.748 846.954C521.409 849.105 518.318 847.684 520.759 849.443C522.268 848.694 521.678 849.227 522.56 847.754L521.47 845.498L521.988 845.088C524.663 846.892 523.152 848.688 526.737 847.7C526.284 850.631 524.671 849.601 524.638 852.386C527.687 855.328 530.556 859.517 534.87 858.562L535.142 859.296C536.941 864.067 545.174 870.886 549.346 873.806C550.825 873.577 550.875 873.531 552.269 872.95L552.813 873.218C552.029 875.469 550.907 874.162 551.537 875.425C552.877 878.109 559.257 878.871 559.832 880.557L558.284 880.868C558.601 882.025 563.609 885.794 564.863 886.744C565.853 886.227 565.737 886.186 566.867 886.166L567.276 886.814L566.318 888.022C567.789 889.726 571.745 892.617 573.71 894.087C580.192 898.938 586.254 903.897 592.191 909.395C593.11 910.246 594.2 910.259 595.413 910.316C592.503 914.113 594.902 921.835 591.063 927.28C586.279 934.063 574.916 935.269 568.705 930.856C568.047 930.165 568.313 930.327 567.637 929.953C564.742 928.483 563.158 925.258 560.551 923.244C546.47 912.362 534.134 899.928 521.071 887.928C519.625 886.599 517.885 887.167 516.091 886.402C517.064 885.411 516.828 885.845 517.339 884.621C515.677 882.734 513.944 881.235 511.477 880.625Z"/><path fill="#040406" d="M565.957 798.106C576.944 811.525 588.455 820.365 601.152 831.72C611.281 840.779 614.705 845.312 626.583 852.724C627.887 852.797 627.861 852.871 629.065 852.426C626.932 857.281 625.639 858.99 622.781 863.253C620.616 866.482 613.851 873.031 613.03 875.827C606.441 874.218 604.988 872.348 599.584 868.888C586.718 860.65 575.177 848.61 565.243 837.037C563.718 835.261 561.039 833.033 559.237 831.162C556.721 828.55 555.981 825.742 553.573 823.433C552.639 822.977 552.616 822.472 552.314 821.478C551.453 818.638 553.459 818.694 553.29 815.937C556.243 813.282 561.673 804.887 564.664 801.409C564.241 801.9 564.485 800.109 565.957 798.106Z"/><path fill="#040406" d="M516.395 843.537L517.253 845.273C519.04 845.789 518.179 845.802 519.929 845.272C520.956 844.053 520.899 843.841 521.33 842.332C522.972 842.988 530.836 849.355 533.616 851.101C535.314 854.329 534.65 854.6 538.185 854.934C540.662 857.553 538.418 857.026 540.294 859.368L543.027 858.713L543.61 859.279L542.657 861.389C543.895 860.794 543.483 861.042 544.492 860.057L545.114 860.754C544.534 861.563 544.195 861.966 543.529 862.709C544.318 863.853 543.83 863.416 545.134 863.893C545.981 863.215 546.092 863.078 546.797 862.245C548.211 863.254 548.477 863.756 549.493 865.12C549.29 866.276 549.455 865.707 548.984 866.823L549.718 867.16L550.997 866.365C553.125 867.703 571.181 882.38 572.684 884.312C572.829 885.524 572.838 885.563 572.69 886.771L573.255 887.044L574.243 886.013C577.632 887.724 581.715 891.837 584.635 894.511L585.238 896.496C592.203 897.102 589.066 900.497 591.488 903.001L592.102 902.932L592.831 901.643C594.188 901.702 594.14 901.847 595.257 902.695C595.514 903.907 595.505 903.959 595.47 905.203L595.954 905.347C598.884 906.245 599.176 906.518 600.564 909.203C599.075 909.684 596.781 910.66 595.413 910.316C594.2 910.259 593.11 910.246 592.191 909.395C586.254 903.897 580.192 898.938 573.71 894.087C571.745 892.617 567.789 889.726 566.318 888.022L567.276 886.814L566.867 886.166C565.737 886.186 565.853 886.227 564.863 886.744C563.609 885.794 558.601 882.025 558.284 880.868L559.832 880.557C559.257 878.871 552.877 878.109 551.537 875.425C550.907 874.162 552.029 875.469 552.813 873.218L552.269 872.95C550.875 873.531 550.825 873.577 549.346 873.806C545.174 870.886 536.941 864.067 535.142 859.296L534.87 858.562C530.556 859.517 527.687 855.328 524.638 852.386C524.671 849.601 526.284 850.631 526.737 847.7C523.152 848.688 524.663 846.892 521.988 845.088L521.47 845.498L522.56 847.754C521.678 849.227 522.268 848.694 520.759 849.443C518.318 847.684 521.409 849.105 519.748 846.954C518.633 847.412 518.677 847.482 517.496 847.398C516.287 846.184 516.507 845.725 515.979 843.783L516.395 843.537Z"/></svg>