<?xml version="1.0" encoding="UTF-8" standalone="no"?>
<svg
   width="1024"
   height="1024"
   viewBox="0 0 1024 1024"
   version="1.1"
   id="svg43"
   sodipodi:docname="logo.svg"
   inkscape:version="1.4.3 (1:1.4.3+202512261034+0d15f75042)"
   inkscape:export-filename="logo.png"
   inkscape:export-xdpi="24"
   inkscape:export-ydpi="24"
   xmlns:inkscape="http://www.inkscape.org/namespaces/inkscape"
   xmlns:sodipodi="http://sodipodi.sourceforge.net/DTD/sodipodi-0.dtd"
   xmlns="http://www.w3.org/2000/svg"
   xmlns:svg="http://www.w3.org/2000/svg">
  <defs
     id="defs43" />
  <sodipodi:namedview
     id="namedview43"
     pagecolor="#ffffff"
     bordercolor="#666666"
     borderopacity="1.0"
     inkscape:showpageshadow="2"
     inkscape:pageopacity="0.0"
     inkscape:pagecheckerboard="0"
     inkscape:deskcolor="#d1d1d1"
     inkscape:zoom="0.39404297"
     inkscape:cx="345.14002"
     inkscape:cy="178.9145"
     inkscape:window-width="1860"
     inkscape:window-height="1016"
     inkscape:window-x="60"
     inkscape:window-y="27"
     inkscape:window-maximized="1"
     inkscape:current-layer="g43">
    <sodipodi:guide
       position="0,1024"
       orientation="0,1024"
       id="guide1"
       inkscape:locked="false" />
    <sodipodi:guide
       position="1024,1024"
       orientation="1024,0"
       id="guide2"
       inkscape:locked="false" />
    <sodipodi:guide
       position="1024,0"
       orientation="0,-1024"
       id="guide3"
       inkscape:locked="false" />
    <sodipodi:guide
       position="0,0"
       orientation="-1024,0"
       id="guide4"
       inkscape:locked="false" />
  </sodipodi:namedview>
  <g
     id="g43">
    <rect
       style="fill:#d6c4c4;fill-opacity:1;stroke:#d6c4c4;stroke-width:4.27665;stroke-linecap:round;stroke-linejoin:round;paint-order:stroke fill markers;stroke-opacity:1"
       id="rect1"
       width="1019.7233"
       height="1019.7233"
       x="2.1383262"
       y="2.138325"
       ry="88.616028" />
    <g
       id="g47"
       transform="translate(0,-70.009973)">
      <path
         fill="#f3a69a"
         d="m 149.09757,409.08597 c -0.0681,-15.62841 0.88373,-32.72502 1.36773,-48.42797 l 1.83876,-66.85126 c 0.32411,-10.04946 0.9896,-17.5644 0.57583,-27.94337 -0.42566,-10.68903 1.4682,-22.77171 0.70979,-33.60118 -0.0367,-16.38034 -0.68818,-32.45385 0.7368,-48.80934 0.73356,-8.42677 4.98476,-14.46811 14.28445,-14.39248 12.41003,0.10047 24.91838,0.60932 37.3511,0.75516 l 50.05714,0.19987 c 5.26349,0.0378 10.53454,0.49696 16.01734,0.5056 l 324.03073,-1.53302 c 87.77233,0.51425 175.53493,2.14991 263.26512,4.90697 l 104.89594,2.35626 c 6.19907,0.1977 21.33808,-1.71561 27.28327,2.53667 1.04578,0.7476 3.68401,5.18462 4.54181,6.61933 -0.23011,8.3371 -10e-4,16.1016 -0.1372,24.27557 L 994.58302,338.7819 990.5695,558.51521 988.05012,681.842 c -0.37921,13.12306 0.82863,26.61345 -0.28522,39.68682 -0.2474,2.90075 -1.34396,9.13656 -3.79636,10.99585 -1.85821,1.40878 -5.73453,1.84849 -8.03136,2.05159 -4.39704,0.38893 -72.45073,1.56652 -73.28153,1.33748 -0.26036,-0.0713 -0.51317,-0.16853 -0.77029,-0.24956 -0.88157,-0.28089 -47.08725,0.9842 -52.28592,1.02634 -13.34778,0.0821 -26.69772,0 -40.04442,-0.24848 -6.07159,-0.094 -11.5814,-0.4235 -17.77291,-0.39649 -28.63048,0.1264 -57.12591,1.5395 -85.77475,0.88265 -5.47632,-0.12533 -11.25405,0.84807 -16.74873,0.95503 -9.40665,0.4397 -19.8526,-0.0378 -29.15229,0.35652 -20.04058,0.85023 -39.9083,0.80702 -59.96184,1.76205 -13.72806,0.78758 -27.47666,1.15598 -41.22741,1.10629 -4.26956,-0.0281 -11.04014,0.0897 -15.04718,-0.38569 3.82122,-4.85079 7.22001,-14.94887 10.7182,-17.7902 0.36084,-3.87631 10.88673,-24.71419 13.17709,-30.17214 4.86807,-11.60409 6.48969,-22.90135 10.04513,-33.92205 1.26726,-4.86376 2.1283,-12.26959 3.08225,-17.54712 1.02958,-6.10292 -0.41377,-7.11413 1.9252,-14.51564 3.36638,-10.6523 0.64605,-24.08543 -0.84484,-34.9149 -0.81891,-5.94735 -1.13329,-11.86337 -1.7545,-17.89607 -0.28845,-5.0377 -1.14301,-12.42192 -2.22985,-17.24678 -1.06091,-6.0381 0.726,-8.97883 -2.7333,-14.56858 l -0.51316,-0.81567 0.0616,-0.49804 c 0.80702,-6.86458 -1.80204,-6.78139 -5.34236,-12.06756 -3.23782,-5.58112 -3.9757,-12.67904 -6.23904,-18.86191 -1.76422,-4.82163 -5.25917,-9.48876 -4.44458,-14.41301 l -0.23768,-0.37381 c -2.08833,-3.32533 -11.97357,-21.11444 -11.27674,-24.2075 -1.79447,-3.55329 -4.85295,-6.3514 -7.20165,-9.60435 -16.97453,-23.50528 -43.96502,-52.79045 -68.48583,-68.32918 -1.29967,-0.35652 -0.64605,-0.25605 -1.95976,-0.31007 -4.81406,-5.14248 -10.00517,-7.68132 -15.11308,-11.94332 -3.294,-2.76786 -9.9155,-5.54221 -13.99167,-8.06592 -13.43313,-7.94277 -28.09138,-15.17466 -42.89872,-20.30851 -9.34399,-3.23998 -21.30891,-5.22891 -30.8452,-9.53088 -6.64526,-2.99799 -18.6534,0.37596 -24.41493,-1.09656 -9.38612,-2.39731 -14.97912,-3.88604 -24.96808,-2.81433 -6.48969,0.37056 -16.04542,-1.38825 -22.32877,-0.15557 -18.48918,3.62891 -37.09721,10.15101 -55.54102,14.26068 -4.6412,1.0339 -15.72672,6.70684 -18.91053,9.48875 l -0.511,0.45591 c -3.01311,-0.94098 -6.46701,1.09116 -9.50496,1.64214 -0.56611,0.98313 -0.74113,2.02351 -1.94248,2.29684 -9.71023,2.21256 -15.42422,7.31508 -23.11203,13.31213 -6.57719,5.15761 -12.99018,10.73008 -19.59547,15.75805 -6.0932,4.63688 -11.10172,7.99138 -16.84056,13.11874 z"
         id="path2"
         style="stroke-width:1.08035" />
      <path
         fill="#8daada"
         d="m 935.25751,217.43972 c 9.34183,-3.1179 14.29849,-4.25227 20.69527,4.71035 0.21715,3.04876 0.32735,4.72655 0.98529,7.77639 -4.45863,10.0527 -22.8884,24.10919 -30.29315,34.03765 -2.33248,3.12654 -5.9776,7.85742 -8.42244,10.88565 -1.08684,0.55314 -11.85257,13.23759 -14.30713,15.62949 l -26.87058,28.73311 c -8.38139,8.83406 -17.41316,17.70485 -24.99508,27.31676 -4.44026,5.62757 -21.16955,19.70351 -23.53769,25.15174 -3.24646,4.92641 -10.97316,12.39166 -15.39181,17.90471 -13.28404,12.57533 -27.14067,32.20861 -41.96097,42.62755 -2.09157,1.46928 -8.63203,1.70264 -11.49497,1.91331 l -0.64605,-0.58015 c -5.02689,-4.48131 -7.11414,-3.49927 -10.64798,-9.00584 0.16854,-1.09872 -0.0616,-0.57367 0.83944,-1.50061 -12.75683,-9.54061 -20.45976,-20.90702 -31.08828,-32.04764 -20.66394,-0.57474 -41.79028,-0.0832 -62.43909,0.77138 -4.89833,0.2031 -11.06716,-0.55855 -15.96764,-1.19271 -2.01054,2.00297 -11.96169,15.37128 -14.41517,18.52267 -15.3486,19.94983 -30.40874,40.11897 -45.17827,60.50094 -2.78515,3.69265 -6.3514,8.03243 -8.47538,12.06432 -0.45267,0.85888 -0.55746,0.9842 -1.19379,1.73829 -4.60231,4.25443 -7.6716,10.91806 -11.67431,12.09565 l -0.23768,-0.37381 c -2.08833,-3.32533 -11.97357,-21.11444 -11.27674,-24.2075 -1.79447,-3.55329 -4.85295,-6.3514 -7.20165,-9.60435 -16.97453,-23.50528 -43.96502,-52.79045 -68.48583,-68.32918 -1.29967,-0.35652 -0.64605,-0.25605 -1.95976,-0.31007 -4.81406,-5.14248 -10.00517,-7.68132 -15.11308,-11.94332 -3.294,-2.76786 -9.9155,-5.54221 -13.99167,-8.06592 -13.43313,-7.94277 -28.09138,-15.17466 -42.89872,-20.30851 -9.34399,-3.23998 -21.30891,-5.22891 -30.8452,-9.53088 -6.64526,-2.99799 -18.6534,0.37596 -24.41493,-1.09656 -9.38612,-2.39731 -14.97912,-3.88604 -24.96808,-2.81433 -6.48969,0.37056 -16.04542,-1.38825 -22.32877,-0.15557 -18.48918,3.62891 -37.09721,10.15101 -55.54102,14.26068 -4.6412,1.0339 -15.72672,6.70684 -18.91053,9.48875 l -0.511,0.45591 c -3.01311,-0.94098 -6.46701,1.09116 -9.50496,1.64214 -0.56611,0.98313 -0.74113,2.02351 -1.94248,2.29684 -9.71023,2.21256 -15.42422,7.31508 -23.11203,13.31213 -6.65822,-0.33383 -11.45608,-0.38785 -17.90903,-2.057 0.8027,-20.76333 0.44726,-42.75827 1.03822,-63.65773 0.17826,-6.30063 1.76638,-13.67621 1.38177,-18.94618 28.12919,-0.0162 58.69566,-1.4077 87.09926,-1.91222 l 68.03857,-0.93235 c 3.84606,-0.0195 8.96586,0.53045 12.4284,0.36516 9.67782,-0.45915 19.75752,-0.98204 29.43966,-1.01445 l 170.63011,-0.21499 c 9.76101,-0.003 19.52201,-0.80379 29.23332,-1.0231 4.44566,-0.10047 9.77829,0.52721 14.47783,0.48508 20.71364,-0.18582 41.23389,-0.18042 61.9432,0.26577 9.96087,0.21499 20.82384,1.37637 30.56215,1.36448 l 139.88431,-0.91398 c 17.83881,-0.0346 35.17526,-0.66441 53.11779,0.33816 7.98598,-7.69753 9.5028,-10.09268 16.12753,-18.42653 4.78489,-3.62891 6.90347,-6.9564 10.92022,-11.07147 8.26364,-8.46566 15.85961,-17.6692 23.8726,-26.46329 4.46943,-4.90481 14.35575,-14.49944 17.438,-18.95482 z"
         id="path3"
         style="stroke-width:1.08035" />
      <path
         fill="#db3f78"
         d="m 935.25751,217.43972 c 9.34183,-3.1179 14.29849,-4.25227 20.69527,4.71035 0.21715,3.04876 0.32735,4.72655 0.98529,7.77639 -4.45863,10.0527 -22.8884,24.10919 -30.29315,34.03765 -2.33248,3.12654 -5.9776,7.85742 -8.42244,10.88565 -1.08684,0.55314 -11.85257,13.23759 -14.30713,15.62949 l -26.87058,28.73311 c -8.38139,8.83406 -17.41316,17.70485 -24.99508,27.31676 -4.44026,5.62757 -21.16955,19.70351 -23.53769,25.15174 -3.24646,4.92641 -10.97316,12.39166 -15.39181,17.90471 -13.28404,12.57533 -27.14067,32.20861 -41.96097,42.62755 -2.09157,1.46928 -8.63203,1.70264 -11.49497,1.91331 l -0.64605,-0.58015 c -5.02689,-4.48131 -7.11414,-3.49927 -10.64798,-9.00584 0.16854,-1.09872 -0.0616,-0.57367 0.83944,-1.50061 -12.75683,-9.54061 -20.45976,-20.90702 -31.08828,-32.04764 -20.66394,-0.57474 -41.79028,-0.0832 -62.43909,0.77138 -4.89833,0.2031 -11.06716,-0.55855 -15.96764,-1.19271 -2.01054,2.00297 -11.96169,15.37128 -14.41517,18.52267 -15.3486,19.94983 -30.40874,40.11897 -45.17827,60.50094 -2.78515,3.69265 -6.3514,8.03243 -8.47538,12.06432 -0.45267,0.85888 -0.55746,0.9842 -1.19379,1.73829 -4.60231,4.25443 -7.6716,10.91806 -11.67431,12.09565 l -0.23768,-0.37381 c -2.08833,-3.32533 -11.97357,-21.11444 -11.27674,-24.2075 9.78585,-5.2516 7.49442,-8.69253 12.57857,-15.52361 7.4458,-10.00193 14.80085,-20.36037 22.35577,-30.25965 8.35654,-10.95048 17.77508,-20.06003 24.96159,-32.14055 4.29225,-4.69198 9.31266,-12.06216 13.24515,-17.35158 3.34802,-3.01851 6.4508,-9.23379 9.43798,-12.82272 6.13101,-7.36478 11.60409,-14.84948 17.25326,-22.55889 2.81756,-3.84606 6.64958,-7.80772 9.52981,-11.71752 1.28238,-1.74045 3.21081,-7.0666 4.23174,-8.2161 4.99016,-5.62 7.7926,-8.1059 14.93591,-9.21542 1.8971,0.84051 7.37234,3.37719 8.64175,4.68982 7.19624,7.43716 14.24556,16.62233 21.25598,24.06706 6.91967,7.34857 14.25528,14.57506 21.10364,22.04139 3.11358,3.39555 7.798,7.71157 10.32171,11.32968 2.36165,-0.47752 55.20071,-0.66334 57.88972,-0.242 1.92843,-1.26618 12.81948,-14.90998 15.53658,-17.66272 14.25635,-14.4411 27.75754,-29.42237 40.5295,-45.19555 4.96314,-6.12993 11.27458,-11.46472 15.82719,-17.77723 7.98598,-7.69753 9.5028,-10.09268 16.12753,-18.42653 4.78489,-3.62891 6.90347,-6.9564 10.92022,-11.07147 8.26364,-8.46566 15.85961,-17.6692 23.8726,-26.46329 4.46943,-4.90481 14.35575,-14.49944 17.438,-18.95482 z"
         id="path4"
         style="stroke-width:1.08035" />
      <path
         fill="#f3a69a"
         d="m 639.71465,390.57086 c 4.77624,-5.7248 6.45295,-10.35412 12.82705,-17.59898 7.80988,0.74112 15.65001,1.12573 23.49555,1.15166 7.48037,0.0897 14.34602,-0.24308 21.79831,0.91182 1.7599,-0.70655 1.76206,-0.86213 3.07145,-2.16071 4.73195,3.60082 13.25703,13.17816 17.21437,18.11754 -20.66394,-0.57474 -41.79028,-0.0832 -62.43909,0.77138 -4.89833,0.2031 -11.06716,-0.55855 -15.96764,-1.19271 z"
         id="path5"
         style="stroke-width:1.08035" />
      <path
         fill="#f3a69a"
         d="m 737.11617,373.23333 c 2.36165,-0.47752 55.20071,-0.66334 57.88972,-0.242 -1.97165,2.67279 -14.40545,16.77466 -16.73145,18.52051 -1.96625,-0.6871 -6.89591,0.0508 -8.86647,0.72276 -3.11359,1.06307 -12.80437,0.33707 -14.66474,1.47577 -3.19893,-2.84782 -14.45946,-16.66771 -17.62706,-20.47704 z"
         id="path6"
         style="stroke-width:1.08035" />
      <path
         fill="#8daada"
         d="m 674.86398,343.13789 c 4.72979,4.77301 19.28001,20.88001 23.6468,23.42857 0.67414,2.36273 1.02634,4.2836 2.39623,6.30819 -1.30939,1.29858 -1.31155,1.45416 -3.07145,2.16071 -7.45229,-1.1549 -14.31794,-0.82215 -21.79831,-0.91182 -7.84554,-0.0259 -15.68567,-0.41054 -23.49555,-1.15166 3.24538,-4.39164 6.51129,-9.16573 9.77937,-13.4234 5.06146,-6.59233 8.66336,-8.91509 12.54291,-16.41059 z"
         id="path7"
         style="stroke-width:1.08035" />
      <path
         fill="#8daada"
         d="m 754.74323,393.71037 c 1.86037,-1.1387 11.55115,-0.4127 14.66474,-1.47577 1.97056,-0.67198 6.90022,-1.40986 8.86647,-0.72276 -4.03621,4.26092 -8.77248,9.22623 -12.302,13.84907 -3.69589,-3.77044 -7.72886,-7.7375 -11.22921,-11.65054 z"
         id="path8"
         style="stroke-width:1.08035" />
      <path
         fill="#8daada"
         d="m 471.57583,392.97789 c 42.22782,0.44078 87.86091,-0.31655 130.19244,-0.47428 1.67131,-0.005 2.82729,0.64497 5.39097,0.484 -7.18651,12.08052 -16.60505,21.19007 -24.96159,32.14055 -7.55492,9.89928 -14.90997,20.25772 -22.35577,30.25965 -5.08415,6.83108 -2.79272,10.27201 -12.57857,15.52361 -1.79447,-3.55329 -4.85295,-6.3514 -7.20165,-9.60435 -16.97453,-23.50528 -43.96502,-52.79045 -68.48583,-68.32918 z"
         id="path9"
         style="stroke-width:1.08035" />
      <path
         fill="#f3a69a"
         d="m 454.50299,380.7245 c 0.51749,-0.53477 1.06307,-1.04146 1.63349,-1.51789 5.52494,-4.68442 21.46881,-3.34586 29.10043,-3.47766 13.65244,-0.24416 27.30704,-0.37381 40.96165,-0.38569 5.26132,0.0346 10.71063,0.43754 15.8542,0.41377 l 37.46669,-0.31438 c 12.2469,-0.21931 28.76768,-0.63633 40.88494,0.19338 -3.93249,5.28942 -8.9529,12.6596 -13.24515,17.35158 -2.56368,0.16097 -3.71966,-0.4894 -5.39097,-0.484 -42.33153,0.15773 -87.96462,0.91506 -130.19244,0.47428 -1.29967,-0.35652 -0.64605,-0.25605 -1.95976,-0.31007 -4.81406,-5.14248 -10.00517,-7.68132 -15.11308,-11.94332 z"
         id="path10"
         style="stroke-width:1.08035" />
      <path
         fill="#8daada"
         d="m 171.73964,187.74078 316.91876,1.55895 c 5.61028,0.004 11.30267,-0.83296 16.67959,-0.81675 l 133.31467,-0.56611 c 5.62432,0 11.22488,0.53154 16.93456,0.48724 30.71988,-0.24092 61.37061,0.62985 92.07213,1.21972 3.34694,-0.22147 7.33021,0.99069 10.41138,-0.6266 3.12438,-1.65078 6.25093,0.97016 9.24459,0.90425 4.80974,-0.10587 9.52657,-0.57798 14.35359,-0.20202 12.42516,0.968 24.70339,-0.23336 37.14259,0.62336 6.10832,0.42134 12.52887,-0.0832 18.69769,0.0691 l 106.17833,2.43836 c 10.61232,0.13936 21.77994,1.00581 32.51759,0.92046 -0.1156,25.06314 1.22944,50.45472 -0.25713,75.53406 -0.10371,1.75882 -0.71519,3.32318 -1.75017,4.72764 -2.75274,0.81242 -50.69023,1.2813 -55.97533,0.83727 2.44484,-3.02823 6.08996,-7.75911 8.42244,-10.88565 7.40475,-9.92846 25.83452,-23.98495 30.29315,-34.03765 -0.65794,-3.04984 -0.76814,-4.72763 -0.98529,-7.77639 -6.39678,-8.96262 -11.35344,-7.82825 -20.69527,-4.71035 -3.08225,4.45538 -12.96857,14.05001 -17.438,18.95482 -8.01299,8.79409 -15.60896,17.99763 -23.8726,26.46329 -4.01675,4.11507 -6.13533,7.44256 -10.92022,11.07147 -19.74996,0.77245 -39.82943,-1.39042 -59.74576,-0.363 -13.84043,0.71411 -28.57214,-0.18474 -42.44497,-0.37056 -4.67146,-0.19339 -10.1132,0.93451 -14.86136,0.64821 -4.30197,-0.0962 -8.71846,-0.37812 -12.96317,-0.39649 l -113.17146,-0.25064 c -118.00389,-0.36192 -236.00885,0.48292 -353.99545,2.53127 l -71.40063,0.91506 c -13.69997,0.0789 -28.93946,-0.27981 -42.61998,0.48292 -1.86254,-23.12715 1.27265,-48.98868 0.58663,-72.43669 -0.1653,-5.67943 -0.9021,-11.29295 -0.6709,-16.9486 z"
         id="path11"
         style="stroke-width:1.08035" />
      <path
         fill="#8daada"
         d="m 570.45204,483.39708 c 17.20788,0.66334 35.15149,0.41053 52.43609,0.42674 28.84222,0.21067 57.68552,0.11127 86.52451,-0.29818 l 174.82189,-0.47752 c 4.43485,0.0119 10.23744,-1.32235 14.29417,-1.06091 24.07462,1.55572 51.96721,-1.84092 75.61617,0.26361 -0.88049,4.57746 -0.34571,9.56438 -0.21931,14.2542 0.48832,18.05056 -1.08684,36.15514 -1.0998,54.15277 l -243.65344,3.39123 -104.99641,1.81176 c -14.09431,0.19014 -32.95622,1.33207 -46.18732,0.85672 -1.06091,-6.0381 0.726,-8.97883 -2.7333,-14.56858 l -0.51316,-0.81567 0.0616,-0.49804 c 0.80702,-6.86458 -1.80204,-6.78139 -5.34236,-12.06756 -3.23782,-5.58112 -3.9757,-12.67904 -6.23904,-18.86191 -1.76422,-4.82163 -5.25917,-9.48876 -4.44458,-14.41301 4.00271,-1.17759 7.072,-7.84122 11.67431,-12.09565 z"
         id="path12"
         style="stroke-width:1.08035" />
      <path
         fill="#8daada"
         d="m 743.27635,654.54036 c 7.87471,2.54531 19.34699,0.66118 27.65168,0.64497 7.78395,-0.0151 15.08282,0.60716 22.88515,-0.44186 2.40054,-0.32303 6.90994,1.28346 9.55141,0.96475 12.33981,-1.22944 24.96807,-0.64929 37.46345,-0.74328 9.40773,-0.0713 20.22964,-1.08144 29.2895,-1.06199 16.5251,0.0346 32.97133,-0.0465 49.49968,0.013 17.34833,0.0616 34.77121,-2.44484 52.27403,-0.30249 -1.50169,16.84596 0.5337,33.50179 -0.58447,50.34127 -0.23552,3.53709 0.5337,9.76641 -0.0616,12.89512 -6.32007,1.23916 -15.05906,0.89021 -21.72053,0.90317 -9.22947,0.002 -18.45785,0.0864 -27.68516,0.25389 l -143.1567,2.1499 c -38.14516,0.7314 -76.17904,2.22769 -114.41387,1.59352 -7.32264,-0.121 -15.03205,-0.26576 -22.31472,-0.0951 l -60.41558,1.35369 c -8.28524,0.10263 -18.90297,0.753 -26.95053,-0.0767 0.36084,-3.87631 10.88673,-24.71419 13.17709,-30.17214 4.86807,-11.60409 6.48969,-22.90135 10.04513,-33.92205 11.54359,-0.65145 23.12283,0.0756 34.68154,-1.15274 3.77908,-0.40189 8.00543,1.09116 11.74562,-0.55638 2.26982,-0.90426 5.74532,1.20243 7.70076,1.05118 5.02257,-0.34895 9.93927,-1.03822 14.99425,-1.13329 17.62166,-0.33059 35.52205,-0.59527 53.13723,-0.33383 9.54277,0.14153 29.82103,-2.18123 37.79945,0.22039 z"
         id="path13"
         style="stroke-width:1.08035" />
      <path
         fill="#8daada"
         d="m 580.21844,573.96428 c 4.45106,0.0205 16.52403,0.80702 19.16009,-1.22404 6.91751,0.61904 13.52928,1.01445 20.48784,0.82107 3.75856,-0.10372 9.21867,-1.43364 12.67796,-1.15058 15.06015,1.23052 29.93447,0.16313 45.04647,-0.19231 l 50.03986,-0.99716 c 7.85634,-0.20635 17.84421,0.98636 24.84167,-0.4073 3.97894,-0.79298 3.536,-1.35152 7.18004,0.70115 7.90495,-0.26036 15.75697,-0.96907 23.57657,-1.21215 9.11387,-0.28306 19.07366,0.50452 28.12811,0.39325 l 99.66163,-1.25106 c 11.71644,-0.11235 22.67232,0.1102 34.47735,-0.69898 8.9529,-0.61365 17.64219,1.37745 26.8695,0.40189 0.18258,19.73591 -0.42782,47.02783 1.10844,65.97077 l -303.652,4.37003 c -28.65425,0.23336 -60.77103,2.68036 -88.92939,1.80203 1.02958,-6.10292 -0.41377,-7.11413 1.9252,-14.51564 3.36638,-10.6523 0.64605,-24.08543 -0.84484,-34.9149 -0.81891,-5.94735 -1.13329,-11.86337 -1.7545,-17.89607 z"
         id="path14"
         style="stroke-width:1.08035" />
      <path
         fill="#8daada"
         d="m 813.12019,389.58557 c 10.72576,3.48199 34.74096,-0.25064 46.99974,0.73572 7.4685,0.60068 17.45313,-1.16462 25.41859,-0.14044 2.58853,0.33275 0.78757,-3.00555 6.80947,0.33707 1.86037,-0.0356 1.52654,-0.15773 3.12979,-0.5996 3.46145,-0.95503 7.79367,-0.27549 11.47984,-0.33167 7.66188,-0.10803 14.67554,0.80703 22.29312,-0.85996 1.53842,-0.33707 8.04972,0.94315 10.12832,0.63849 8.49267,-1.24781 24.14593,1.55787 31.68788,0.34787 l 2.41459,-0.38676 1.31912,0.47535 c 1.00797,2.77111 -0.34896,66.14795 -0.29602,74.20307 -9.5579,1.88738 -17.29864,0.17718 -26.85221,0.68279 -19.11687,1.01337 -38.03496,1.01337 -57.15292,1.79231 -9.92305,0.40405 -21.15334,-0.21391 -31.34648,-0.0108 l -176.11292,2.12506 c -28.98915,0.43862 -58.38451,0.43646 -87.40608,0.73248 -5.04525,0.0519 -10.56371,0.605 -15.51281,0.26793 14.76953,-20.38197 29.82967,-40.55111 45.17827,-60.50094 2.45348,-3.15139 12.40463,-16.5197 14.41517,-18.52267 4.90048,0.63416 11.06931,1.39581 15.96764,1.19271 20.64881,-0.85456 41.77515,-1.34612 62.43909,-0.77138 10.62852,11.14062 18.33145,22.50703 31.08828,32.04764 -0.90102,0.92694 -0.6709,0.40189 -0.83944,1.50061 3.53384,5.50657 5.62109,4.52453 10.64798,9.00584 l 0.64605,0.58015 c 2.86294,-0.21067 9.4034,-0.44403 11.49497,-1.91331 14.8203,-10.41894 28.67693,-30.05222 41.96097,-42.62755 z"
         id="path15"
         style="stroke-width:1.08035" />
      <path
         fill="#8daada"
         d="m 903.91535,290.47925 c 16.74117,3.00339 35.19363,0.63741 52.31724,1.49413 6.61285,0.33167 12.7914,-0.4894 19.74889,0.0918 l -0.15882,0.95719 c -1.11168,7.07633 -0.32951,19.24652 -0.28845,26.82521 0.0605,11.15358 -0.27225,22.2607 -0.0216,33.40456 0.0594,2.64147 0.51641,15.87149 0.20311,17.74158 -1.17759,0.82971 -1.49521,1.1495 -2.98394,1.17003 -17.9879,0.24416 -36.29343,-0.94207 -54.17978,-0.60932 l -51.07376,0.59311 c -11.49281,0.18366 -27.68625,1.07495 -38.96623,-0.46671 2.36814,-5.44823 19.09743,-19.52417 23.53769,-25.15174 7.58192,-9.61191 16.61369,-18.4827 24.99508,-27.31676 z"
         id="path16"
         style="stroke-width:1.08035" />
      <path
         d="m 185.5336,380.20918 c 7.68781,-5.99705 13.4018,-11.09957 23.11203,-13.31213 1.20135,-0.27333 1.37637,-1.31371 1.94248,-2.29684 3.03795,-0.55098 6.49185,-2.58312 9.50496,-1.64214 l 0.511,-0.45591 c 3.18381,-2.78191 14.26933,-8.45485 18.91053,-9.48875 18.44381,-4.10967 37.05184,-10.63177 55.54102,-14.26068 6.28335,-1.23268 15.83908,0.52613 22.32877,0.15557 9.98896,-1.07171 15.58196,0.41702 24.96808,2.81433 5.76153,1.47252 17.76967,-1.90143 24.41493,1.09656 9.53629,4.30197 21.50121,6.2909 30.8452,9.53088 14.80734,5.13385 29.46559,12.36574 42.89872,20.30851 4.07617,2.52371 10.69767,5.29806 13.99167,8.06592 5.10791,4.262 10.29902,6.80084 15.11308,11.94332 1.31371,0.054 0.66009,-0.0464 1.95976,0.31007 24.52081,15.53873 51.5113,44.8239 68.48583,68.32918 2.3487,3.25295 5.40718,6.05106 7.20165,9.60435 -0.69683,3.09306 9.18841,20.88217 11.27674,24.2075 l 0.23768,0.37381 c -0.81459,4.92425 2.68036,9.59138 4.44458,14.41301 2.26334,6.18287 3.00122,13.28079 6.23904,18.86191 3.54032,5.28617 6.14938,5.20298 5.34236,12.06756 l -0.0616,0.49804 0.51316,0.81567 c 3.4593,5.58975 1.67239,8.53048 2.7333,14.56858 1.08684,4.82486 1.9414,12.20908 2.22985,17.24678 0.62121,6.0327 0.93559,11.94872 1.7545,17.89607 1.49089,10.82947 4.21122,24.2626 0.84484,34.9149 -2.33897,7.40151 -0.89562,8.41272 -1.9252,14.51564 -0.95395,5.27753 -1.81499,12.68336 -3.08225,17.54712 -3.55544,11.0207 -5.17706,22.31796 -10.04513,33.92205 -2.29036,5.45795 -12.81625,26.29583 -13.17709,30.17214 -3.49819,2.84133 -6.89698,12.93941 -10.7182,17.7902 -3.82229,5.83283 -8.99395,15.03746 -13.76479,19.88068 -0.12316,0.10156 -0.24632,0.20419 -0.37056,0.30683 -6.58044,6.68199 -10.86945,15.46203 -16.9821,22.79872 -5.91386,7.09901 -13.34238,9.77504 -19.74888,15.26757 -6.104,5.23323 -11.40206,12.02758 -18.41248,16.75413 -3.23458,2.18124 -3.5414,1.23701 -5.65025,2.11642 -6.99638,2.91912 -14.93374,8.56829 -21.90527,11.97033 -13.11983,6.40326 -26.1986,12.7363 -39.69439,18.23098 -1.98785,0.80919 -8.38355,0.15773 -9.761,0.53478 -4.05349,1.10952 1.16678,3.07252 -5.58759,1.62593 -7.06336,3.07793 -13.25055,7.09901 -20.66935,3.43229 -5.63945,0.29277 -11.23893,2.81216 -16.91727,3.35882 -3.98543,0.38352 -9.08362,-0.84916 -12.68876,-0.83296 -1.73937,0.008 -7.25891,3.03148 -10.21692,3.02824 -9.01231,-0.009 -18.16616,-1.5838 -27.10177,-2.80676 -6.11265,-0.87617 -13.20949,0.34679 -19.22059,-0.60716 -13.53576,-2.14991 -26.69772,-6.61069 -39.78297,-10.36492 -11.2627,-3.23134 -19.60736,-7.84446 -29.9874,-13.05393 -4.05349,-2.0343 -10.12833,-3.76827 -13.754,-6.12129 l -0.87616,0.61365 c -0.37813,2.23309 0.51316,3.1784 1.62593,4.95882 3.43121,5.48712 2.55504,15.82936 2.24498,22.1289 -2.8046,4.04485 -5.33263,6.20448 -8.19773,9.76317 -3.62891,-2.59717 -13.68485,-15.2773 -18.40276,-19.6657 -5.06687,-6.24228 -13.39856,-11.24757 -18.5108,-17.09985 -13.38235,-15.31618 -29.86208,-27.64303 -42.77339,-43.28332 -1.10845,-1.34288 -0.52938,-1.29535 -2.21689,-2.64147 5.23756,-7.07632 15.4912,-9.72211 23.00291,-4.39812 l 0.65253,-0.21175 c 0.0162,-0.89021 0.22688,-1.95976 -0.24092,-2.48265 -4.76544,-5.15113 -10.72792,-9.00908 -15.0515,-14.69067 -5.28833,-6.6096 -9.90361,-13.53468 -14.71442,-20.48352 -7.17939,-10.36708 -10.004088,-22.98238 -15.737097,-34.20834 -2.362195,-4.62608 -6.307434,-8.11995 -8.037514,-13.15224 -1.56727,-4.5591 -2.317144,-9.28565 -3.568951,-13.93009 -6.668272,-22.11918 -12.34748,-44.88333 -13.056841,-68.0807 -0.100257,-3.2778 -0.899827,-9.7005 0.514357,-12.33009 2.214187,-3.38259 -0.812102,-11.36101 0.813291,-14.54481 3.037417,-5.94951 1.37594,-7.96221 1.07128,-14.40545 -0.211102,-4.46402 0.341932,-9.40664 0.747497,-13.96034 1.258613,-14.1278 7.031919,-26.7593 12.020132,-39.84996 1.596764,-4.22742 1.249106,-11.07903 2.889841,-15.44474 4.853384,-12.91672 15.015735,-27.09205 22.769655,-38.71883 4.32358,-7.43608 9.08579,-17.65623 14.56751,-24.48516 3.55004,-4.42297 11.15141,-10.67822 15.2989,-15.24272 3.24646,-3.57273 7.17031,-8.29172 10.61016,-11.30915 5.73884,-5.12736 10.74736,-8.48186 16.84056,-13.11874 6.60529,-5.02797 13.01828,-10.60044 19.59547,-15.75805 z"
         id="path18"
         style="stroke-width:1.08035" />
      <path
         fill="#e9a4b1"
         d="m 249.19457,383.34112 c 3.1406,-1.96192 14.97264,-6.82027 18.66637,-7.74506 26.59617,-6.66038 57.38519,-6.03702 84.4189,-2.55504 10.34332,1.33316 13.65893,-0.77137 23.37347,4.22743 7.13466,2.07104 14.04893,5.45795 21.05611,8.07997 2.3152,0.86645 4.29009,2.24822 6.83,3.10494 6.49185,0.9734 18.55725,8.07133 25.26518,10.55074 3.56517,1.31804 0.51316,3.92385 7.69428,3.31561 6.57828,3.02715 14.27364,11.54359 20.18534,15.93307 11.8234,8.78004 22.2834,16.22476 31.00186,28.33878 6.07915,8.44621 14.28985,13.92361 20.09999,23.82506 2.28927,3.69805 6.48105,10.70739 10.52698,12.17127 -0.04,1.5233 -0.34355,1.42499 0.37704,2.28063 2.27631,2.70305 3.25295,6.23149 4.8562,9.06201 3.13951,5.54222 5.69454,10.41786 8.43216,16.17615 1.36989,2.61554 2.44593,4.70495 3.4204,7.51819 1.95004,5.62541 2.32169,13.1652 5.77774,17.89175 0.002,1.13329 0.0227,5.69023 0.27225,6.50265 0.94315,3.06821 4.62284,15.23732 5.85876,17.39803 1.63242,3.55221 2.91804,12.90052 1.96193,16.75198 -0.54342,2.83161 3.03363,26.6275 5.05173,28.30529 -0.58231,2.65875 -1.6551,0.40729 -1.73829,3.4809 -0.18582,6.81812 -0.27657,29.8113 -4.2728,34.85872 1.99758,5.30346 -2.79596,11.43771 -2.22553,16.00329 l -0.89129,0.726 c -1.44227,5.01717 -3.11034,7.02555 -4.94911,11.6257 -1.93491,6.45944 -4.58934,13.46121 -6.45943,19.86231 -1.09656,3.75748 -5.77018,10.944 -6.26282,13.04204 -1.98353,8.46134 -6.29631,10.61881 -9.65621,18.24287 -2.93316,5.13493 -5.64917,10.3552 -8.64067,15.42638 -4.18098,7.82069 -18.96887,22.85382 -25.68003,28.70934 -16.29175,19.52417 -47.96018,37.21174 -71.08193,48.51765 -5.47956,2.67927 -15.4912,3.09737 -21.47096,5.21487 -22.03383,10.26228 -42.09602,10.49456 -65.56132,11.6473 -2.24605,0.11019 -4.8832,2.52479 -6.11805,-0.009 -4.11939,0.004 -6.97801,1.68211 -10.02677,1.62161 l -0.89777,-1.07712 c -1.49089,0.82864 -0.35976,0.12533 -1.67779,1.14734 -1.27374,0.98745 -2.09157,1.15814 -3.68617,0.94639 -1.97705,-0.26252 -3.84282,-1.44551 -5.81015,-1.92843 -2.59933,-0.63633 -16.75305,-3.38043 -18.30012,-2.46213 -0.23336,0.13937 -0.44727,0.30898 -0.6709,0.46347 -2.47509,-0.69034 -11.35021,-3.99839 -12.79356,-4.03836 -10.22448,-0.28414 -14.66473,-1.72425 -24.0757,-5.39421 -14.02084,-5.46768 -30.59132,-18.38656 -44.77962,-21.72161 -3.72722,-5.29806 -16.51213,-12.7417 -22.09973,-16.58452 -1.73505,-1.19271 -3.27779,-4.31494 -4.33546,-6.21528 -4.49752,-0.63309 -15.51929,-14.27905 -17.89391,-18.52808 -1.61513,-2.89103 -3.06389,-4.82054 -6.05539,-6.45512 -3.80177,-1.48765 -5.21163,-4.70062 -6.97369,-7.99787 -8.12859,-9.01339 -11.00881,-16.70228 -16.57264,-26.88462 -3.96382,-7.2535 -7.677,-10.21907 -10.58099,-18.91809 -2.02458,-4.50399 -5.06146,-10.55398 -6.38922,-15.38749 -1.44756,-5.26888 -2.17648,-11.47768 -4.14856,-16.77682 -1.08489,-2.9148 -0.47276,-2.33573 -2.787744,-3.44741 -1.553442,-4.32034 -1.424448,-14.0835 -2.435227,-19.14172 -2.028474,-8.25067 -0.142499,-17.90904 -1.017694,-25.93391 -1.861559,-17.07177 -2.631636,-30.05655 0.848294,-47.10346 2.167515,-10.61665 1.800519,-17.18304 5.581221,-27.89259 -0.74447,-1.0177 -0.55098,-0.63849 -0.98518,-1.85497 7.9418,-11.60625 9.25983,-26.35849 16.24216,-39.48156 0.61256,-2.53883 3.27996,-8.8265 4.83243,-10.88889 10.0689,-13.37155 20.41005,-27.79428 30.37633,-41.15179 5.65997,-6.95424 11.22488,-10.95695 18.33037,-16.31875 5.31318,-5.2462 18.68149,-18.41789 24.4992,-21.78535 9.16681,-5.30562 16.24853,-7.40151 25.63141,-14.20882 1.70048,-1.21108 4.17665,-2.53235 4.88212,-4.15505 -1.16246,-0.81891 -1.7264,-1.22944 -2.77975,-2.17583 l 0.58987,-0.37813 c 1.81392,-0.0486 1.92088,0.0432 3.43769,1.03823 2.98718,0.15233 18.74307,-5.9009 22.40439,-7.41124 z"
         id="path19"
         style="stroke-width:1.08035" />
      <path
         fill="#be87ad"
         d="m 531.97845,510.10668 c 1.36989,2.61554 2.44593,4.70495 3.4204,7.51819 1.95004,5.62541 2.32169,13.1652 5.77774,17.89175 0.002,1.13329 0.0227,5.69023 0.27225,6.50265 0.94315,3.06821 4.62284,15.23732 5.85876,17.39803 1.63242,3.55221 2.91804,12.90052 1.96193,16.75198 -0.54342,2.83161 3.03363,26.6275 5.05173,28.30529 -0.58231,2.65875 -1.6551,0.40729 -1.73829,3.4809 -0.18582,6.81812 -0.27657,29.8113 -4.2728,34.85872 -9.80854,3.59974 -51.05971,2.67604 -64.01424,3.25403 l -158.60577,6.44431 c -17.1193,0.57367 -32.52624,1.92412 -50.1587,2.00838 -3.81041,4.14856 -13.33374,12.31712 -15.66406,15.78938 -8.33818,8.71738 -17.58493,16.47865 -26.16619,24.92702 -2.54099,2.50102 -10.21151,7.8531 -11.89686,10.0916 -8.33386,11.06499 -10.64798,14.92509 -25.04154,17.8064 -6.77706,-4.31278 -7.49226,-5.18246 -10.97532,-12.51807 1.46928,-3.69373 3.13627,-8.55857 5.81879,-11.49389 5.72588,-6.26282 12.24149,-12.04919 18.40708,-17.89391 3.74451,-3.48199 6.75113,-4.72655 10.50753,-8.80489 4.1075,-1.35045 13.32833,-12.2523 16.72064,-15.95576 5.86741,-3.91304 9.61948,-8.93237 14.7544,-13.91388 18.81222,-18.24935 37.24631,-39.07535 56.00342,-57.30417 l 1.22945,-0.99609 c 6.67551,-5.34019 7.37882,-8.91292 13.15655,-14.68417 7.13791,-7.7375 16.47433,-15.13361 23.48691,-22.71122 8.61259,-9.92089 17.196,-20.26421 27.87531,-28.10542 12.59261,-9.24675 24.46463,11.99734 31.68572,19.48743 8.22365,8.53156 15.89633,16.26258 23.47826,25.52014 4.90049,0.62985 13.12955,0.19446 18.43301,0.0486 13.16736,-0.36733 26.32608,-0.96908 39.47183,-1.80528 0.40838,-0.84159 6.42487,-7.29239 7.53872,-8.5953 10.8554,-12.70065 25.85936,-32.2367 37.62334,-43.30277 z"
         id="path20"
         style="stroke-width:1.08035" />
      <path
         fill="#96aad0"
         d="m 506.6355,576.86503 c 13.91604,-0.18582 28.87787,-0.97556 42.63403,-0.69575 -0.54342,2.83161 3.03363,26.6275 5.05173,28.30529 -0.58231,2.65875 -1.6551,0.40729 -1.73829,3.4809 -0.18582,6.81812 -0.27657,29.8113 -4.2728,34.85872 -9.80854,3.59974 -51.05971,2.67604 -64.01424,3.25403 l -158.60577,6.44431 c -17.1193,0.57367 -32.52624,1.92412 -50.1587,2.00838 2.89211,-4.29008 14.82786,-14.92401 19.18601,-19.51444 l 37.38027,-39.08615 c 2.95153,-3.03579 10.26445,-12.50834 13.86959,-13.20301 17.05664,0.70331 34.39525,-1.08252 51.43784,-1.53951 4.65525,-0.12532 9.0739,-0.17177 13.69674,-0.83079 6.98449,5.20083 7.6824,9.71347 12.88538,15.20275 8.52292,8.99395 16.41707,20.32795 24.93027,28.97835 l 11.00881,2.18232 c 1.56651,-0.66982 6.48969,-2.79596 7.45552,-3.86659 13.35211,-14.78789 25.31379,-31.68896 39.25361,-45.97881 z"
         id="path21"
         style="stroke-width:1.08035" />
      <path
         fill="#e9a4b1"
         d="m 397.15561,566.19005 c 4.58718,4.77948 9.23703,9.49955 13.9463,14.15696 -4.62284,0.65902 -9.04149,0.70547 -13.69674,0.83079 -17.04259,0.45699 -34.3812,2.24282 -51.43784,1.53951 0.93775,-2.22661 11.33184,-12.60017 13.60815,-14.8041 6.95748,0.60932 29.14904,-1.21 37.58013,-1.72316 z"
         id="path22"
         style="stroke-width:1.08035" />
      <path
         fill="#e9a4b1"
         d="m 428.91155,563.76141 c 4.90049,0.62985 13.12955,0.19446 18.43301,0.0486 13.16736,-0.36733 26.32608,-0.96908 39.47183,-1.80528 -1.83552,2.87591 -12.13778,15.93847 -15.06122,17.26299 -12.0762,-0.6601 -15.67919,-0.46563 -27.00886,2.25362 -5.18246,-7.13574 -10.26337,-11.28755 -15.83476,-17.75995 z"
         id="path23"
         style="stroke-width:1.08035" />
      <path
         fill="#e9a4b1"
         d="m 547.3076,559.4173 c 1.63242,3.55221 2.91804,12.90052 1.96193,16.75198 -13.75616,-0.27981 -28.71799,0.50993 -42.63403,0.69575 4.24255,-5.28401 7.70725,-10.0419 11.65702,-15.54306 5.93331,-0.29602 25.13121,-0.0702 29.01508,-1.90467 z"
         id="path24"
         style="stroke-width:1.08035" />
      <path
         fill="#96aad0"
         d="m 359.57548,567.91321 c 5.45795,-6.94884 13.62327,-10.96344 19.72727,-20.62829 5.24404,5.3067 13.42341,13.19869 17.85286,18.90513 -8.43109,0.51316 -30.62265,2.33248 -37.58013,1.72316 z"
         id="path25"
         style="stroke-width:1.08035" />
      <path
         fill="#a3a9c4"
         d="m 518.29252,561.32197 c 1.54815,-2.88887 17.52119,-19.92822 20.48784,-24.16537 0.35544,-0.50669 1.82472,-1.31803 2.39623,-1.63998 0.002,1.13329 0.0227,5.69023 0.27225,6.50265 0.94315,3.06821 4.62284,15.23732 5.85876,17.39803 -3.88387,1.83445 -23.08177,1.60865 -29.01508,1.90467 z"
         id="path26"
         style="stroke-width:1.08035" />
      <path
         fill="#a3a9c4"
         d="m 444.74631,581.52136 c 11.32967,-2.71925 14.93266,-2.91372 27.00886,-2.25362 -4.93938,5.20407 -9.1452,9.64648 -13.35318,15.54414 -5.43635,-3.06281 -8.69686,-8.71846 -13.65568,-13.29052 z"
         id="path27"
         style="stroke-width:1.08035" />
      <path
         fill="#96aad0"
         d="m 249.19457,383.34112 c 3.1406,-1.96192 14.97264,-6.82027 18.66637,-7.74506 26.59617,-6.66038 57.38519,-6.03702 84.4189,-2.55504 10.34332,1.33316 13.65893,-0.77137 23.37347,4.22743 7.13466,2.07104 14.04893,5.45795 21.05611,8.07997 2.3152,0.86645 4.29009,2.24822 6.83,3.10494 6.49185,0.9734 18.55725,8.07133 25.26518,10.55074 3.56517,1.31804 0.51316,3.92385 7.69428,3.31561 6.57828,3.02715 14.27364,11.54359 20.18534,15.93307 11.8234,8.78004 22.2834,16.22476 31.00186,28.33878 6.07915,8.44621 14.28985,13.92361 20.09999,23.82506 -12.99774,-0.94963 -24.16537,-0.13181 -37.1361,0.23876 l -62.02748,2.11425 -102.20478,2.86834 -63.87596,2.45673 c -7.72993,0.33815 -15.45879,1.25537 -23.19089,1.26077 -16.43543,0.014 -32.84494,0.56503 -49.27821,0.72816 0.17178,-14.8592 1.43795,-33.08046 0.45699,-47.66632 5.31318,-5.2462 18.68149,-18.41789 24.4992,-21.78535 9.16681,-5.30562 16.24853,-7.40151 25.63141,-14.20882 1.70048,-1.21108 4.17665,-2.53235 4.88212,-4.15505 -1.16246,-0.81891 -1.7264,-1.22944 -2.77975,-2.17583 l 0.58987,-0.37813 c 1.81392,-0.0486 1.92088,0.0432 3.43769,1.03823 2.98718,0.15233 18.74307,-5.9009 22.40439,-7.41124 z"
         id="path28"
         style="stroke-width:1.08035" />
      <path
         fill="#e9a4b1"
         d="m 249.19457,383.34112 c 3.1406,-1.96192 14.97264,-6.82027 18.66637,-7.74506 26.59617,-6.66038 57.38519,-6.03702 84.4189,-2.55504 10.34332,1.33316 13.65893,-0.77137 23.37347,4.22743 7.13466,2.07104 14.04893,5.45795 21.05611,8.07997 2.3152,0.86645 4.29009,2.24822 6.83,3.10494 -0.65469,0.7206 -1.86145,2.01486 -2.73329,2.18556 -5.71292,1.1106 -15.40262,1.96408 -21.06908,2.10993 -30.32663,0.78002 -60.27081,2.35949 -90.62878,2.62742 -16.33712,0.14369 -33.51584,2.12182 -49.88753,2.03647 -4.22094,-0.0216 -15.12172,0.46347 -18.56049,-0.9896 1.70048,-1.21108 4.17665,-2.53235 4.88212,-4.15505 -1.16246,-0.81891 -1.7264,-1.22944 -2.77975,-2.17583 l 0.58987,-0.37813 c 1.81392,-0.0486 1.92088,0.0432 3.43769,1.03823 2.98718,0.15233 18.74307,-5.9009 22.40439,-7.41124 z"
         id="path29"
         style="stroke-width:1.08035" />
      <path
         fill="#8daada"
         d="m 249.19457,383.34112 c 3.1406,-1.96192 14.97264,-6.82027 18.66637,-7.74506 26.59617,-6.66038 57.38519,-6.03702 84.4189,-2.55504 10.34332,1.33316 13.65893,-0.77137 23.37347,4.22743 -3.33613,1.31911 -15.55494,2.53127 -19.61059,2.63282 -16.6461,0.31979 -33.14528,0.29494 -49.78382,1.28887 -2.11317,0.1264 -12.07512,0.22579 -13.86419,0.0691 -8.03243,-0.70655 -37.56717,4.11939 -43.20014,2.08184 z"
         id="path30"
         style="stroke-width:1.08035" />
      <path
         fill="#96aad0"
         d="m 275.53146,654.52091 c 17.63246,-0.0843 33.0394,-1.43471 50.1587,-2.00838 l 158.60577,-6.44431 c 12.95453,-0.57799 54.2057,0.34571 64.01424,-3.25403 1.99758,5.30346 -2.79596,11.43771 -2.22553,16.00329 l -0.89129,0.726 c -1.44227,5.01717 -3.11034,7.02555 -4.94911,11.6257 -1.93491,6.45944 -4.58934,13.46121 -6.45943,19.86231 -1.09656,3.75748 -5.77018,10.944 -6.26282,13.04204 -1.98353,8.46134 -6.29631,10.61881 -9.65621,18.24287 -22.6626,1.19055 -45.20095,1.13653 -67.85599,1.79339 l -124.71072,4.11399 -124.08196,4.28469 c -13.84474,0.39432 -26.89975,1.44443 -40.85685,1.48008 1.67455,-20.12268 1.70372,-39.81755 2.19528,-59.96832 11.13306,0.11128 22.60318,-0.47643 33.74164,-0.92154 7.77855,-0.31114 16.47432,-1.10196 24.22371,-0.67414 -3.7564,4.07834 -6.76302,5.3229 -10.50753,8.80489 -6.16559,5.84472 -12.6812,11.63109 -18.40708,17.89391 -2.68252,2.93532 -4.34951,7.80016 -5.81879,11.49389 3.48306,7.33561 4.19826,8.20529 10.97532,12.51807 14.39356,-2.88131 16.70768,-6.74141 25.04154,-17.8064 1.68535,-2.2385 9.35587,-7.59058 11.89686,-10.0916 8.58126,-8.44837 17.82801,-16.20964 26.16619,-24.92702 2.33032,-3.47226 11.85365,-11.64082 15.66406,-15.78938 z"
         id="path31"
         style="stroke-width:1.08035" />
      <path
         fill="#e9a4b1"
         d="m 275.53146,654.52091 c 17.63246,-0.0843 33.0394,-1.43471 50.1587,-2.00838 l 158.60577,-6.44431 c 12.95453,-0.57799 54.2057,0.34571 64.01424,-3.25403 1.99758,5.30346 -2.79596,11.43771 -2.22553,16.00329 l -0.89129,0.726 c -3.8493,-0.36408 -8.24527,-0.0843 -12.14103,0.19338 -14.82138,1.05875 -29.63304,1.22081 -44.47711,1.74586 -8.73575,0.31006 -17.4823,1.24241 -26.18996,1.49629 -55.06783,1.13977 -110.11297,3.19137 -165.11274,6.15262 -8.84054,0.54882 -30.33959,-0.0151 -37.40511,1.17866 2.33032,-3.47226 11.85365,-11.64082 15.66406,-15.78938 z"
         id="path32"
         style="stroke-width:1.08035" />
      <path
         fill="#96aad0"
         d="m 169.46009,495.52082 c 9.52549,-1.089 21.41695,-0.76706 31.21144,-1.13114 l 62.33214,-2.28711 127.64604,-4.27172 c 12.07837,-0.41161 23.97847,-1.38285 36.22537,-1.70264 l 61.55104,-1.99109 c 8.70982,-0.30358 22.02303,0.15017 29.88693,-1.54923 -0.04,1.5233 -0.34355,1.42499 0.37704,2.28063 2.27631,2.70305 3.25295,6.23149 4.8562,9.06201 3.13951,5.54222 5.69454,10.41786 8.43216,16.17615 -11.76398,11.06607 -26.76794,30.60212 -37.62334,43.30277 -1.11385,1.30291 -7.13034,7.75371 -7.53872,8.5953 -13.14575,0.8362 -26.30447,1.43795 -39.47183,1.80528 -5.30346,0.14584 -13.53252,0.58123 -18.43301,-0.0486 -7.58193,-9.25756 -15.25461,-16.98858 -23.47826,-25.52014 -7.22109,-7.49009 -19.09311,-28.73418 -31.68572,-19.48743 -10.67931,7.84121 -19.26272,18.18453 -27.87531,28.10542 -7.01258,7.57761 -16.349,14.97372 -23.48691,22.71122 l -103.48284,3.44092 c -17.95873,0.5996 -34.29261,1.68752 -52.50847,1.60649 -0.12856,-25.26517 2.32817,-53.5132 3.06605,-79.09707 z"
         id="path33"
         style="stroke-width:1.08035" />
      <path
         fill="#cfc7c1"
         d="m 170.15908,776.58045 c 2.14774,-0.8416 11.85041,-2.03863 14.44866,-2.13046 23.12931,-0.82215 46.72425,-0.56935 69.83196,-1.30831 l 180.55425,-6.08996 c 7.01582,-0.19554 44.247,-1.99541 48.55113,-0.5996 -16.29175,19.52417 -47.96018,37.21174 -71.08193,48.51765 -5.47956,2.67927 -15.4912,3.09737 -21.47096,5.21487 -22.03383,10.26228 -42.09602,10.49456 -65.56132,11.6473 -2.24605,0.11019 -4.8832,2.52479 -6.11805,-0.009 -4.11939,0.004 -6.97801,1.68211 -10.02677,1.62161 l -0.89777,-1.07712 c -1.49089,0.82864 -0.35976,0.12533 -1.67779,1.14734 -1.27374,0.98745 -2.09157,1.15814 -3.68617,0.94639 -1.97705,-0.26252 -3.84282,-1.44551 -5.81015,-1.92843 -2.59933,-0.63633 -16.75305,-3.38043 -18.30012,-2.46213 -0.23336,0.13937 -0.44727,0.30898 -0.6709,0.46347 -2.47509,-0.69034 -11.35021,-3.99839 -12.79356,-4.03836 -10.22448,-0.28414 -14.66473,-1.72425 -24.0757,-5.39421 -14.02084,-5.46768 -30.59132,-18.38656 -44.77962,-21.72161 -3.72722,-5.29806 -16.51213,-12.7417 -22.09973,-16.58452 -1.73505,-1.19271 -3.27779,-4.31494 -4.33546,-6.21528 z"
         id="path34"
         style="fill:#d6c4c4;fill-opacity:1;stroke-width:1.08035" />
      <path
         fill="#96aad0"
         d="m 152.19927,448.73606 c 3.24106,7.09901 -0.14045,43.49292 -0.57907,54.05662 l -4.39165,100.5594 -4.32898,90.99394 c -0.45267,9.38828 -0.69358,41.43484 -3.51979,48.8828 l -0.14369,0.37056 c -8.12859,-9.01339 -11.00881,-16.70228 -16.57264,-26.88462 -3.96382,-7.2535 -7.677,-10.21907 -10.58099,-18.91809 -2.02458,-4.50399 -5.06146,-10.55398 -6.38922,-15.38749 -1.44756,-5.26888 -2.17648,-11.47768 -4.14856,-16.77682 -1.08489,-2.9148 -0.47276,-2.33573 -2.787744,-3.44741 -1.553442,-4.32034 -1.424448,-14.0835 -2.435227,-19.14172 -2.028474,-8.25067 -0.142499,-17.90904 -1.017694,-25.93391 -1.861559,-17.07177 -2.631636,-30.05655 0.848294,-47.10346 2.167515,-10.61665 1.800519,-17.18304 5.581221,-27.89259 -0.74447,-1.0177 -0.55098,-0.63849 -0.98518,-1.85497 7.9418,-11.60625 9.25983,-26.35849 16.24216,-39.48156 0.61256,-2.53883 3.27996,-8.8265 4.83243,-10.88889 10.0689,-13.37155 20.41005,-27.79428 30.37633,-41.15179 z"
         id="path35"
         style="stroke-width:1.08035" />
      <path
         fill="#cfc7c1"
         d="m 116.99051,500.77674 c 0.42782,0.47968 0.85672,0.95828 1.28562,1.43795 1.15598,9.25 0.26469,19.00668 0.001,28.36687 -1.52114,54.07499 -3.64295,108.22992 -4.61311,162.30166 -0.0324,1.79879 -0.32735,3.61163 -1.58164,4.91345 -2.02458,-4.50399 -5.06146,-10.55398 -6.38922,-15.38749 -1.44756,-5.26888 -2.17648,-11.47768 -4.14856,-16.77682 -1.08489,-2.9148 -0.47276,-2.33573 -2.787744,-3.44741 -1.553442,-4.32034 -1.424448,-14.0835 -2.435227,-19.14172 -2.028474,-8.25067 -0.142499,-17.90904 -1.017694,-25.93391 -1.861559,-17.07177 -2.631636,-30.05655 0.848294,-47.10346 2.167515,-10.61665 1.800519,-17.18304 5.581221,-27.89259 -0.74447,-1.0177 -0.55098,-0.63849 -0.98518,-1.85497 7.9418,-11.60625 9.25983,-26.35849 16.24216,-39.48156 z"
         id="path36"
         style="fill:#d6c4c4;fill-opacity:1;stroke-width:1.08035" />
      <path
         fill="#96aad0"
         d="m 146.20978,751.59725 c 1.5946,-1.29751 2.63498,-1.45848 4.76004,-1.56111 14.02841,-0.67847 28.14,-0.88373 42.17812,-1.42607 l 105.27299,-3.82446 136.49955,-4.4489 c 24.62128,-0.82431 49.52453,-2.6285 74.30463,-2.59393 -4.18098,7.82069 -18.96887,22.85382 -25.68003,28.70934 -4.30413,-1.39581 -41.53531,0.40406 -48.55113,0.5996 l -180.55425,6.08996 c -23.10771,0.73896 -46.70265,0.48616 -69.83196,1.30831 -2.59825,0.0918 -12.30092,1.28886 -14.44866,2.13046 -4.49752,-0.63309 -15.51929,-14.27905 -17.89391,-18.52808 -1.61513,-2.89103 -3.06389,-4.82054 -6.05539,-6.45512 z"
         id="path37"
         style="stroke-width:1.08035" />
      <path
         fill="#96aad0"
         d="m 166.2644,589.80768 c 16.43327,0 32.68289,-1.13113 49.07511,-1.97705 10.55722,-0.5445 21.62005,0 32.05952,-0.62445 20.07298,-1.20027 40.46575,-2.4416 60.60032,-1.95544 -18.75711,18.22882 -37.1912,39.05482 -56.00342,57.30417 -5.13492,4.98151 -8.88699,10.00084 -14.7544,13.91388 -9.31157,0.60824 -19.22815,0.0918 -28.65208,0.53802 -14.95967,0.70871 -29.97984,1.60757 -44.94599,1.91547 0.72168,-9.40665 0.27873,-18.95914 0.84916,-28.14648 0.86968,-13.97655 1.49413,-26.95809 1.77178,-40.96812 z"
         id="path38"
         style="stroke-width:1.08035" />
      <path
         fill="#707d96"
         d="m 61.004055,839.03358 c 4.98011,-6.11264 8.933992,-10.83055 14.616656,-16.29174 2.978754,-2.86402 6.095901,-7.59058 9.635034,-9.97168 5.321935,-3.57921 7.975826,-9.5244 12.216757,-13.82529 5.834128,-5.91602 11.403468,-11.84501 17.074248,-17.92957 1.68751,1.34612 1.10844,1.29859 2.21689,2.64147 12.91131,15.64029 29.39104,27.96714 42.77339,43.28332 5.11224,5.85228 13.44393,10.85757 18.5108,17.09985 4.71791,4.3884 14.77385,17.06853 18.40276,19.6657 -1.76854,3.66672 -4.76653,4.02972 -7.32157,8.51967 -4.56233,4.6693 -8.61042,9.75453 -13.04096,14.53725 -2.5237,2.72574 -5.38124,5.16734 -7.825,7.96114 -2.47726,2.83377 -4.54722,6.01001 -7.01475,8.85242 -2.64686,3.05092 -5.7518,5.70968 -8.50131,8.67201 -5.23323,5.63837 -10.17693,11.56411 -15.36912,17.24894 -5.16085,5.65133 -9.85823,12.6758 -16.02922,17.19168 -3.13519,2.29575 -2.43836,4.64877 -4.60015,7.22325 -3.17192,3.77908 -7.29563,6.93047 -10.6524,10.58423 -2.90237,3.15896 -5.45536,6.6215 -8.361514,9.77829 -2.895566,3.14599 -6.12507,6.01218 -8.882567,9.28133 -2.77543,3.29184 -5.038881,7.01474 -7.909599,10.22015 -4.637746,5.18138 -24.705656,24.1632 -26.008671,30.224 H 0 V 908.0261 c 7.8410079,-6.99637 9.8198609,-11.37397 16.258039,-19.42801 2.857646,-3.0909 5.851524,-6.11265 8.776692,-9.14088 12.165981,-12.5937 23.580574,-28.30961 35.969324,-40.42363 z"
         id="path40"
         style="stroke-width:1.08035" />
      <path
         fill="#8daada"
         d="m 128.81823,141.67446 c 0.39001,-0.11128 3.35126,-0.96152 3.35126,-0.96152 3.94222,1.60973 3.4647,-0.83187 8.54237,-0.57367 13.45365,0.68495 27.22277,-1.11168 40.4355,1.94248 1.23269,0.29818 0.4235,-3.34694 6.31036,-0.17502 1.65186,-0.10371 1.70371,-0.16313 3.10601,-0.77893 3.44634,-1.51574 9.69727,0.76813 13.09498,0.15449 15.47176,-2.7938 31.23737,-0.14477 46.83121,0.31222 5.68375,0.39973 11.61597,-0.55422 17.24246,-0.36732 4.2728,0.14261 8.85134,0.31655 13.12631,0.62985 11.71104,0.85564 23.32161,-0.27009 34.9257,-0.36948 8.15991,-0.0702 14.70254,0.28197 22.98454,-0.38677 l 0.68062,0.39109 c 0.82215,0.46563 1.49305,0.80702 2.33465,1.2208 0.79622,-0.81351 0.54126,-0.49156 1.01769,-1.55679 1.90035,-0.57799 7.61002,0.0929 10.04946,0.21823 5.49576,0.28197 9.10739,-0.8632 13.94846,2.15207 l 0.90642,-0.17394 0.148,-1.61945 c -0.56502,0.17718 30.79443,1.17866 32.07141,1.25321 l 0.79838,-1.19811 0.9734,0.12208 c 5.19542,0.61796 10.42542,0.59311 15.65218,0.6212 5.3834,0.0302 10.78301,0.17826 16.16858,0.15665 3.66781,-0.0162 7.33129,-0.36192 10.99693,-0.45375 0.37056,0.39541 0.7422,0.79082 1.11385,1.18623 3.67212,0.2258 12.85513,-1.14517 15.93739,-0.66442 l 0.60175,1.33208 c 3.53276,-0.16745 0.64281,-1.24673 2.72142,-1.31155 3.778,-0.11992 10.80354,1.87334 14.13211,0.20203 l 0.67847,-1.30507 0.71411,0.36192 -0.35976,1.21432 c 3.39124,0.6871 14.41841,0.29169 21.0183,1.33207 2.88563,-1.84092 4.90481,-1.08467 8.12211,-0.99392 3.18164,0.0897 6.36977,0.59203 9.55249,0.66117 2.6836,0.0216 5.45471,-1.39365 8.21286,-1.19703 8.1826,-0.14045 15.84015,0.92694 24.00115,1.00581 3.09846,0.0303 7.85094,0.10588 11.09308,0.38137 0.49805,-0.43215 0.99501,-0.86321 1.49197,-1.29427 0.19771,0.16097 1.64754,1.36341 1.73721,1.35693 33.50396,-2.21797 66.66652,-0.46348 100.14346,1.25105 2.14991,0.11019 6.12994,-1.57624 8.47971,-1.44228 18.89972,0.57907 37.83401,1.89711 56.7413,1.77287 2.92236,-0.0195 6.02405,-0.81783 9.04797,-0.83944 12.49106,0.0248 24.94106,1.40122 37.13502,4.10643 0.34788,-0.49264 0.69575,-0.98421 1.04362,-1.47685 0.19771,0.0173 0.39541,0.0335 0.5942,0.0508 10.60152,0.0745 21.35537,-1.39582 31.9839,-1.09656 6.88293,0.19446 13.93981,1.86361 20.85084,1.91655 11.83744,0.0972 23.66408,-0.34355 35.48856,-0.83187 4.26956,-0.0259 8.62447,0.39433 12.88539,0.33707 40.26482,-0.5445 80.55988,1.98029 120.81061,1.72316 5.8718,-0.0378 8.8957,0.22472 14.7631,1.2705 7.7018,7.03419 6.1602,6.225 7.247,17.13982 l -0.1037,-0.14476 1.0533,13.79504 c 0.1859,2.16719 -0.6806,4.3333 -0.8794,5.87065 -0.1923,1.48657 1.6443,2.13478 1.411,2.22229 -2.258,0.84376 -0.5186,12.78599 -0.645,15.13793 -0.148,2.74518 1.0523,5.54005 -1.2521,7.42527 -0.2215,0.24848 -0.443,0.49589 -0.6634,0.74437 l 0.2507,0.77677 c 0.7746,-0.10371 0.9647,-0.17718 1.7318,0.0248 -1.5687,16.88594 0.6017,33.86263 -1.4909,50.81556 -0.088,0.71303 1.2564,3.09521 1.6573,3.84822 -0.058,2.45564 -2.4762,8.48402 -1.9306,8.96802 2.9266,2.6015 -1.4077,2.2655 0.1685,6.16342 0.1653,0.40838 0.9734,2.63823 0.8535,3.21298 -1.3505,10.8057 -0.6958,21.1609 -0.1567,31.97525 -0.1177,3.20325 0.712,7.97194 -0.2409,10.9159 -0.4203,1.29751 -2.6112,2.89643 -1.8809,4.69738 3.617,8.90861 1.2867,16.69364 0.7627,25.88746 -0.1631,2.87698 2.7506,2.09913 2.4524,4.26308 l -1.4941,-1.09548 -0.5931,0.25604 c -0.6288,3.17949 0.1739,5.41906 0.928,8.50671 l -0.3716,0.52398 c -0.5067,0.72816 -0.8643,1.32019 -1.3159,2.07752 l 0.2226,0.99717 c 1.2597,-0.46348 1.3342,-0.60284 2.4318,-1.41419 -0.6601,5.02905 -4.8875,2.26551 -1.0663,7.45769 -0.175,4.84539 -0.8664,8.66984 -1.5384,13.45149 0.887,0.49805 0.3554,0.36624 1.6411,0.0735 -0.443,2.09805 -2.0279,5.88577 -2.0549,7.01366 -0.038,1.6551 1.7556,5.15113 1.2813,7.22649 l -1.3439,0.77029 c 0.1512,3.51116 2.7408,12.02219 0.3673,13.54549 -0.2409,10.34979 0.4764,21.29811 0.1491,31.50638 l -1.4239,60.2222 c -0.077,4.28036 -0.9335,8.49051 -0.9929,12.78275 -0.04,2.86727 0.6309,6.49726 0.5488,9.27917 -0.39,13.32293 0.057,26.64586 -0.8977,39.90073 l 1.1354,0.2863 c -0.9042,12.32684 -1.0739,24.28745 -1.99,37.0151 l 1.4844,1.2651 -0.073,0.9183 -1.2198,0.0497 c -1.2219,9.28132 0.01,11.22704 0.052,19.70566 0.049,8.79949 -1.2802,18.91593 -1.2003,28.02224 0.04,4.48779 0.078,12.11401 0.229,16.96697 0.083,2.66955 -1.0998,-1.51358 -0.928,2.34869 0.8751,19.62896 0.4484,40.3426 -0.8578,59.97048 -0.081,1.20783 -0.8805,2.0235 -1.2824,2.81756 -2.5939,5.12736 -5.365,6.08672 -10.4999,8.24419 -0.3663,0.15449 -1.7156,0.0389 -2.1488,0.0443 -8.06165,0.0983 -16.16431,-0.0929 -24.21944,-0.0951 -2.49994,-10e-4 -6.30279,0.95611 -8.793,0.91938 -4.78165,-0.0724 -10.56263,-0.59311 -15.29782,-0.39865 -14.65933,0.605 -28.93622,0.15881 -43.62688,0.45375 -6.51886,0.13072 -13.45906,-0.98528 -20.18534,-1.06307 -6.31576,-0.0735 -14.84732,1.46172 -21.40939,0.39217 -0.66874,-0.63309 -1.22944,-1.16462 -1.68427,-1.5946 l -0.55638,1.33856 c -4.80326,1.67671 -17.36454,0.89885 -23.17793,1.26077 -18.72146,1.16678 -43.94018,-3.76396 -61.76819,1.41418 -8.69037,-3.19785 -17.86582,-1.78474 -27.84074,-2.13586 -1.91222,1.80744 -7.80016,1.03498 -10.82947,1.19596 -9.98464,0.52721 -20.01897,0.70115 -30.00036,1.31911 -1.10089,-0.69575 -1.10305,-0.77029 -2.3703,-1.0782 l -1.38934,1.22513 c -1.52114,-0.23552 -4.21662,-1.52222 -5.16409,-1.45848 -14.84948,1.00797 -29.51961,2.53559 -44.42526,1.49521 -3.6408,-0.25388 -8.28308,0.74112 -12.0157,0.56935 -6.32332,0.0411 -15.26974,-0.54882 -21.85234,-0.69143 -0.62444,0.3846 -1.2478,0.76813 -1.87225,1.15166 -2.06348,0.16421 -7.28483,-1.56544 -8.86107,-1.58596 -2.8597,-0.0378 -6.86997,1.39149 -9.89713,1.55679 -5.20622,0.28413 -12.40463,-0.92371 -17.3278,-0.52073 -11.89362,0.9734 -23.04288,1.32127 -34.95595,1.1657 -6.56856,-0.0864 -14.35575,1.3526 -21.14794,0.0486 4.77084,-4.84322 9.9425,-14.04785 13.76479,-19.88068 4.00704,0.47536 10.77762,0.3576 15.04718,0.38569 13.75075,0.0497 27.49935,-0.31871 41.22741,-1.10629 20.05354,-0.95503 39.92126,-0.91182 59.96184,-1.76205 9.29969,-0.39433 19.74564,0.0832 29.15229,-0.35652 5.49468,-0.10696 11.27241,-1.08036 16.74873,-0.95503 28.64884,0.65685 57.14427,-0.75625 85.77475,-0.88265 6.19151,-0.027 11.70132,0.3025 17.77291,0.39649 13.3467,0.24848 26.69664,0.33058 40.04442,0.24848 5.19867,-0.0421 51.40435,-1.30723 52.28592,-1.02634 0.25712,0.081 0.50993,0.17826 0.77029,0.24956 0.8308,0.22904 68.88449,-0.94855 73.28153,-1.33748 2.29683,-0.2031 6.17315,-0.64281 8.03136,-2.05159 2.4524,-1.85929 3.54896,-8.0951 3.79636,-10.99585 1.11385,-13.07337 -0.094,-26.56376 0.28522,-39.68682 l 2.51938,-123.32679 4.01352,-219.73331 1.33316,-129.09912 c 0.13612,-8.17397 -0.0929,-15.93847 0.1372,-24.27557 -0.8578,-1.43471 -3.49603,-5.87173 -4.54181,-6.61933 -5.94519,-4.25228 -21.0842,-2.33897 -27.28327,-2.53667 L 859.33286,173.89492 C 771.60267,171.13786 683.84007,169.5022 596.06774,168.98795 L 272.03651,170.521 c -5.4828,-0.009 -10.75385,-0.46779 -16.01734,-0.5056 l -50.05714,-0.19987 c -12.43272,-0.14584 -24.94107,-0.65469 -37.3511,-0.75516 -9.29969,-0.0756 -13.55089,5.96571 -14.28445,14.39248 -1.42498,16.35549 -0.77353,32.429 -0.7368,48.80934 0.75841,10.82947 -1.13545,22.91215 -0.70979,33.60118 0.41377,10.37897 -0.25172,17.89391 -0.57583,27.94337 L 150.4653,360.658 c -0.484,15.70295 -1.43579,32.79956 -1.36773,48.42797 -3.43985,3.01743 -7.3637,7.73642 -10.61016,11.30915 -4.14749,4.5645 -11.74886,10.81975 -15.2989,15.24272 -5.48172,6.82893 -10.24393,17.04908 -14.56751,24.48516 -1.41061,-7.21785 0.71412,-19.42369 0.90858,-27.53716 0.97232,-31.44155 2.28387,-62.87231 3.93357,-94.28686 0.59312,-12.33549 2.42216,-37.38459 1.66483,-48.96707 0.82539,-0.77245 0.41053,-0.42133 1.23701,-1.06307 -0.96152,-19.45934 0.60391,-41.20364 1.78582,-60.79262 0.54666,-9.05122 0.29062,-18.54645 0.40297,-27.64736 l 1.35909,-1.48765 c -0.33167,-2.64902 -1.52114,-3.82229 -1.23376,-5.97436 0.97772,-0.61364 0.40837,-0.38568 1.75341,-0.56394 l -0.0583,-0.61472 -1.45199,0.17501 c -0.95072,-1.57731 0.97015,-37.45265 2.90939,-41.05887 0.46563,-0.86536 5.85444,-7.36586 6.98665,-8.62987 z"
         id="path41"
         style="stroke-width:1.08035" />
    </g>
  </g>
</svg>
